<svg width="106" height="106" viewBox="0 0 106 106" fill="none" xmlns="http://www.w3.org/2000/svg">
<g opacity="0.25">
<path d="M76.0262 71.9627C83.5638 69.6897 89.0896 62.7791 89.0896 54.5056C89.0896 44.3902 80.8814 36.1863 70.7529 36.1863C70.7529 22.2781 59.4661 11 45.5448 11C31.6235 11 20.3367 22.2781 20.3367 36.1863C10.2082 36.1863 2 44.3902 2 54.5056C2 62.13 6.69275 68.5969 13.3281 71.3436C13.893 71.5775 152.789 71.9627 15.0634 71.9627" fill="#16EEBA"/>
</g>
<path d="M67.1696 78.1403V72.5797C67.1696 68.6432 63.8123 65.0769 59.6668 65.0769C55.5214 65.0769 52.1641 68.4342 52.1641 72.5797V78.1403" stroke="#16EEBA" stroke-width="1.5" stroke-linecap="round" stroke-linejoin="round"/>
<path d="M68.4794 95.559H50.835C48.4923 95.559 46.5938 93.6604 46.5938 91.3177V82.3823C46.5938 80.0396 48.4923 78.1411 50.835 78.1411H68.4794C70.8221 78.1411 72.7206 80.0396 72.7206 82.3823V91.3177C72.7206 93.6604 70.8221 95.559 68.4794 95.559Z" stroke="#16EEBA" stroke-width="1.5" stroke-linecap="round" stroke-linejoin="round"/>
<path d="M90.1433 78.1414C97.6809 75.8683 103.207 68.9578 103.207 60.6843C103.207 50.5688 94.9986 42.365 84.8701 42.365C84.8701 28.4568 73.5833 17.1786 59.662 17.1786C45.7407 17.1786 34.4539 28.4568 34.4539 42.365C24.3254 42.365 16.1172 50.5688 16.1172 60.6843C16.1172 68.9578 21.643 75.8683 29.1806 78.1414" stroke="#16EEBA" stroke-width="1.5" stroke-linecap="round" stroke-linejoin="round"/>
</svg>
