<svg width="106" height="106" viewBox="0 0 106 106" fill="none" xmlns="http://www.w3.org/2000/svg">
<g opacity="0.25">
<path d="M3.83594 75.1035V73.2366C3.84322 70.6853 4.85997 68.2405 6.66406 66.4364C8.46816 64.6323 10.9129 63.6156 13.4643 63.6083H26.3941C28.9454 63.6156 31.3902 64.6323 33.1943 66.4364C34.9984 68.2405 36.0152 70.6853 36.0225 73.2366V75.1035C36.0225 75.7132 35.7802 76.298 35.3491 76.7291C34.9179 77.1603 34.3332 77.4025 33.7234 77.4025H6.13497C5.52523 77.4025 4.94046 77.1603 4.50931 76.7291C4.07816 76.298 3.83594 75.7132 3.83594 75.1035Z" fill="#16EEBA"/>
<path d="M19.9305 52.1131C25.0094 52.1131 29.1267 47.9959 29.1267 42.917C29.1267 37.8381 25.0094 33.7208 19.9305 33.7208C14.8516 33.7208 10.7344 37.8381 10.7344 42.917C10.7344 47.9959 14.8516 52.1131 19.9305 52.1131Z" fill="#16EEBA"/>
<path d="M63.6094 93.4957V91.6289C63.6167 89.0775 64.6334 86.6327 66.4375 84.8286C68.2416 83.0245 70.6864 82.0078 73.2377 82.0005H86.1675C88.7189 82.0078 91.1637 83.0245 92.9678 84.8286C94.7719 86.6327 95.7886 89.0775 95.7959 91.6289V93.4957C95.7959 94.1054 95.5537 94.6902 95.1225 95.1213C94.6914 95.5525 94.1066 95.7947 93.4969 95.7947H65.9084C65.2987 95.7947 64.7139 95.5525 64.2827 95.1213C63.8516 94.6902 63.6094 94.1054 63.6094 93.4957Z" fill="#16EEBA"/>
<path d="M79.704 70.5055C84.7829 70.5055 88.9001 66.3882 88.9001 61.3093C88.9001 56.2304 84.7829 52.1132 79.704 52.1132C74.6251 52.1132 70.5078 56.2304 70.5078 61.3093C70.5078 66.3882 74.6251 70.5055 79.704 70.5055Z" fill="#16EEBA"/>
<path d="M53.8016 36.0202V42.9127C53.8016 43.3475 53.9248 43.7733 54.1571 44.1409C54.3893 44.5084 54.721 44.8025 55.1137 44.9891C55.5063 45.1758 55.9439 45.2472 56.3755 45.1953C56.8071 45.1433 57.2152 44.97 57.5523 44.6954L68.2056 36.0202H79.091C81.5299 36.0202 83.869 35.0513 85.5936 33.3267C87.3182 31.6021 88.2871 29.263 88.2871 26.8241V13.0295C88.2871 10.5906 87.3182 8.25148 85.5936 6.52686C83.869 4.80225 81.5299 3.83337 79.091 3.83337H49.8133C47.3744 3.83337 45.0353 4.80225 43.3107 6.52686C41.5861 8.25148 40.6172 10.5906 40.6172 13.0295V26.8237C40.6172 29.2627 41.5861 31.6018 43.3107 33.3264C45.0353 35.051 47.3744 36.0199 49.8133 36.0199L53.8016 36.0202Z" fill="#16EEBA"/>
</g>
<path d="M9.03906 80.3088V78.442C9.04634 75.8906 10.0631 73.4458 11.8672 71.6417C13.6713 69.8376 16.1161 68.8209 18.6674 68.8136H31.5972C34.1486 68.8209 36.5934 69.8376 38.3975 71.6417C40.2015 73.4458 41.2183 75.8906 41.2256 78.442V80.3088C41.2256 80.9185 40.9834 81.5033 40.5522 81.9344C40.1211 82.3656 39.5363 82.6078 38.9265 82.6078H11.3381C10.7284 82.6078 10.1436 82.3656 9.71244 81.9344C9.28128 81.5033 9.03906 80.9185 9.03906 80.3088Z" stroke="#16EEBA" stroke-width="1.5" stroke-linecap="round" stroke-linejoin="round"/>
<path d="M59.0047 41.2255V48.1181C59.0047 48.5528 59.128 48.9786 59.3602 49.3462C59.5925 49.7137 59.9241 50.0078 60.3168 50.1945C60.7095 50.3811 61.147 50.4526 61.5786 50.4006C62.0103 50.3486 62.4183 50.1753 62.7554 49.9008L73.4088 41.2255H84.2941C86.7331 41.2255 89.0721 40.2567 90.7968 38.5321C92.5214 36.8074 93.4902 34.4684 93.4902 32.0294V18.2348C93.4902 15.7959 92.5214 13.4568 90.7968 11.7322C89.0721 10.0076 86.7331 9.0387 84.2941 9.0387H55.0165C52.5775 9.0387 50.2384 10.0076 48.5138 11.7322C46.7892 13.4568 45.8203 15.7959 45.8203 18.2348V32.0291C45.8203 34.468 46.7892 36.8071 48.5138 38.5317C50.2384 40.2563 52.5775 41.2252 55.0165 41.2252L59.0047 41.2255Z" stroke="#16EEBA" stroke-width="1.5" stroke-linecap="round" stroke-linejoin="round"/>
<path d="M25.1336 57.3184C30.2125 57.3184 34.3298 53.2012 34.3298 48.1223C34.3298 43.0434 30.2125 38.9261 25.1336 38.9261C20.0548 38.9261 15.9375 43.0434 15.9375 48.1223C15.9375 53.2012 20.0548 57.3184 25.1336 57.3184Z" stroke="#16EEBA" stroke-width="1.5" stroke-linecap="round" stroke-linejoin="round"/>
<path d="M68.8125 98.701V96.8342C68.8198 94.2828 69.8365 91.838 71.6406 90.0339C73.4447 88.2298 75.8895 87.2131 78.4409 87.2058H91.3707C93.922 87.2131 96.3668 88.2298 98.1709 90.0339C99.975 91.838 100.992 94.2828 100.999 96.8342V98.701C100.999 99.3107 100.757 99.8955 100.326 100.327C99.8945 100.758 99.3097 101 98.7 101H71.1115C70.5018 101 69.917 100.758 69.4859 100.327C69.0547 99.8955 68.8125 99.3107 68.8125 98.701Z" stroke="#16EEBA" stroke-width="1.5" stroke-linecap="round" stroke-linejoin="round"/>
<path d="M84.9071 75.7108C89.986 75.7108 94.1032 71.5935 94.1032 66.5146C94.1032 61.4357 89.986 57.3185 84.9071 57.3185C79.8282 57.3185 75.7109 61.4357 75.7109 66.5146C75.7109 71.5935 79.8282 75.7108 84.9071 75.7108Z" stroke="#16EEBA" stroke-width="1.5" stroke-linecap="round" stroke-linejoin="round"/>
</svg>
