<svg width="106" height="106" viewBox="0 0 106 106" fill="none" xmlns="http://www.w3.org/2000/svg">
<g opacity="0.25">
<path d="M50.1764 68.5833H46.25C38.9316 68.5833 33 62.6517 33 55.3333V42.0833C33 37.2029 36.9529 33.25 41.8333 33.25H54.5931C59.4735 33.25 63.4264 37.2029 63.4264 42.0833V55.3333C63.4264 62.6517 57.4948 68.5833 50.1764 68.5833Z" fill="#16EEBA" stroke="#16EEBA" stroke-width="1.5" stroke-linecap="round" stroke-linejoin="round"/>
<path d="M57.0495 33.25H39.3828V24.4167C39.3828 21.9787 41.3615 20 43.7995 20H52.6328C55.0708 20 57.0495 21.9787 57.0495 24.4167V33.25Z" fill="#16EEBA" stroke="#16EEBA" stroke-width="1.5" stroke-linecap="round" stroke-linejoin="round"/>
</g>
<path d="M79.4994 30.917L75.0827 39.7503L69.1953 43.8004" stroke="#16EEBA" stroke-width="1.5" stroke-linecap="round" stroke-linejoin="round"/>
<path d="M22.0859 53H35.8218" stroke="#16EEBA" stroke-width="1.5" stroke-linecap="round" stroke-linejoin="round"/>
<path d="M70.1797 53H83.9155" stroke="#16EEBA" stroke-width="1.5" stroke-linecap="round" stroke-linejoin="round"/>
<path d="M26.5 13.25H22.0833C17.2029 13.25 13.25 17.2029 13.25 22.0833V26.5" stroke="#16EEBA" stroke-width="1.5" stroke-linecap="round" stroke-linejoin="round"/>
<path d="M79.5 92.75H83.9167C88.7971 92.75 92.75 88.7971 92.75 83.9167V79.5" stroke="#16EEBA" stroke-width="1.5" stroke-linecap="round" stroke-linejoin="round"/>
<path d="M13.25 79.5V83.9167C13.25 88.7971 17.2029 92.75 22.0833 92.75H26.5" stroke="#16EEBA" stroke-width="1.5" stroke-linecap="round" stroke-linejoin="round"/>
<path d="M92.75 26.5V22.0833C92.75 17.2029 88.7971 13.25 83.9167 13.25H79.5" stroke="#16EEBA" stroke-width="1.5" stroke-linecap="round" stroke-linejoin="round"/>
<path d="M20 4H14.6667C8.77333 4 4 8.77333 4 14.6667V20" stroke="#16EEBA" stroke-width="1.5" stroke-linecap="round" stroke-linejoin="round"/>
<path d="M86 102H91.3333C97.2267 102 102 97.2267 102 91.3333V86" stroke="#16EEBA" stroke-width="1.5" stroke-linecap="round" stroke-linejoin="round"/>
<path d="M4 86V91.3333C4 97.2267 8.77333 102 14.6667 102H20" stroke="#16EEBA" stroke-width="1.5" stroke-linecap="round" stroke-linejoin="round"/>
<path d="M102 20V14.6667C102 8.77333 97.2267 4 91.3333 4H86" stroke="#16EEBA" stroke-width="1.5" stroke-linecap="round" stroke-linejoin="round"/>
<path d="M26.5 30.917L30.9167 39.7503L36.8041 43.8004" stroke="#16EEBA" stroke-width="1.5" stroke-linecap="round" stroke-linejoin="round"/>
<path d="M54.9577 75.0833H51.0313C43.7128 75.0833 37.7812 69.1517 37.7812 61.8333V48.5833C37.7812 43.7029 41.7342 39.75 46.6146 39.75H59.3743C64.2548 39.75 68.2077 43.7029 68.2077 48.5833V61.8333C68.2077 69.1517 62.2761 75.0833 54.9577 75.0833Z" stroke="#16EEBA" stroke-width="1.5" stroke-linecap="round" stroke-linejoin="round"/>
<path d="M26.5 75.0836L30.9167 66.2503L36.8041 62.2002" stroke="#16EEBA" stroke-width="1.5" stroke-linecap="round" stroke-linejoin="round"/>
<path d="M79.4994 75.0836L75.0827 66.2503L69.1953 62.2002" stroke="#16EEBA" stroke-width="1.5" stroke-linecap="round" stroke-linejoin="round"/>
<path d="M61.8307 39.75H44.1641V30.9167C44.1641 28.4787 46.1427 26.5 48.5807 26.5H57.4141C59.8521 26.5 61.8307 28.4787 61.8307 30.9167V39.75Z" stroke="#16EEBA" stroke-width="1.5" stroke-linecap="round" stroke-linejoin="round"/>
</svg>
