<svg width="106" height="106" viewBox="0 0 106 106" fill="none" xmlns="http://www.w3.org/2000/svg">
<g opacity="0.25">
<path d="M34.8343 27.5739C39.0572 31.7967 39.0572 38.6432 34.8343 42.8661C30.6115 47.0889 23.765 47.0889 19.5421 42.8661C15.3193 38.6432 15.3193 31.7967 19.5421 27.5739C23.7649 23.351 30.6115 23.351 34.8343 27.5739Z" fill="#16EEBA"/>
<path d="M82.6991 22.9589C87.9776 28.2374 87.9776 36.7956 82.6991 42.0741C77.4206 47.3527 68.8624 47.3527 63.5839 42.0741C58.3054 36.7956 58.3054 28.2374 63.5839 22.9589C68.8624 17.6804 77.4206 17.6804 82.6991 22.9589Z" fill="#16EEBA"/>
<path d="M97.472 83.8794V78.4728C97.472 69.514 90.2109 62.2529 81.2522 62.2529H65.0323C56.0736 62.2529 48.8125 69.514 48.8125 78.4728V83.8794" fill="#16EEBA"/>
<path d="M53.4017 83.8794V78.4728C53.4017 69.514 46.1406 62.2529 37.1818 62.2529H20.962C12.0033 62.2529 4.74219 69.514 4.74219 78.4728V83.8794" fill="#16EEBA"/>
</g>
<path d="M39.9515 32.6946C44.1744 36.9174 44.1744 43.764 39.9515 47.9868C35.7287 52.2096 28.8821 52.2096 24.6593 47.9868C20.4365 43.764 20.4365 36.9174 24.6593 32.6946C28.8821 28.4718 35.7287 28.4718 39.9515 32.6946" stroke="#16EEBA" stroke-width="1.5" stroke-linecap="round" stroke-linejoin="round"/>
<path d="M87.8241 28.0796C93.1026 33.3582 93.1026 41.9163 87.8241 47.1949C82.5456 52.4734 73.9874 52.4734 68.7089 47.1949C63.4304 41.9163 63.4304 33.3582 68.7089 28.0796C73.9874 22.8011 82.5456 22.8011 87.8241 28.0796" stroke="#16EEBA" stroke-width="1.5" stroke-linecap="round" stroke-linejoin="round"/>
<path d="M102.589 89.0001V83.5935C102.589 74.6347 95.3281 67.3737 86.3694 67.3737H70.1495C61.1908 67.3737 53.9297 74.6347 53.9297 83.5935V89.0001" stroke="#16EEBA" stroke-width="1.5" stroke-linecap="round" stroke-linejoin="round"/>
<path d="M37.7127 67.3737H26.8995C17.9408 67.3737 10.6797 74.6347 10.6797 83.5935V89.0001" stroke="#16EEBA" stroke-width="1.5" stroke-linecap="round" stroke-linejoin="round"/>
</svg>
