<svg width="106" height="106" viewBox="0 0 106 106" fill="none" xmlns="http://www.w3.org/2000/svg">
<g opacity="0.25">
<path d="M86.4667 72.1013H10.0348C7.39791 72.1013 5.25781 69.9612 5.25781 67.3243V62.5473C5.25781 59.9104 7.39791 57.7703 10.0348 57.7703H86.4667C89.1036 57.7703 91.2437 59.9104 91.2437 62.5473V67.3243C91.2437 69.9612 89.1036 72.1013 86.4667 72.1013Z" fill="#16EEBA"/>
<path d="M14.8082 10C12.1713 10 10.0312 12.1401 10.0312 14.777V57.7699H86.4631V14.777C86.4631 12.1401 84.3231 10 81.6861 10" fill="#16EEBA"/>
</g>
<path d="M95.1073 78.8919H18.6754C16.0385 78.8919 13.8984 76.7518 13.8984 74.1149V69.3379C13.8984 66.701 16.0385 64.5609 18.6754 64.5609H95.1073C97.7442 64.5609 99.8843 66.701 99.8843 69.3379V74.1149C99.8843 76.7518 97.7442 78.8919 95.1073 78.8919Z" stroke="#16EEBA" stroke-width="1.5" stroke-linecap="round" stroke-linejoin="round"/>
<path d="M23.4489 16.7908C20.812 16.7908 18.6719 18.9309 18.6719 21.5678V64.5607H95.1038V21.5678C95.1038 18.9309 92.9637 16.7908 90.3268 16.7908" stroke="#16EEBA" stroke-width="1.5" stroke-linecap="round" stroke-linejoin="round"/>
<path d="M75.9957 97.9998L71.2188 78.8918" stroke="#16EEBA" stroke-width="1.5" stroke-linecap="round" stroke-linejoin="round"/>
<path d="M37.7891 97.9999L42.5661 78.8919" stroke="#16EEBA" stroke-width="1.5" stroke-linecap="round" stroke-linejoin="round"/>
<path d="M76.2248 21.3701H37.5666C34.8992 21.3701 32.7344 19.9551 32.7344 18.2117V15.0534C32.7344 13.31 34.8992 11.895 37.5666 11.895H76.2248C78.8922 11.895 81.057 13.31 81.057 15.0534V18.2117C81.057 19.9551 78.8922 21.3701 76.2248 21.3701Z" stroke="#16EEBA" stroke-width="1.5" stroke-linecap="round" stroke-linejoin="round"/>
<path d="M90.3352 16.7907H80.7812" stroke="#16EEBA" stroke-width="1.5" stroke-linecap="round" stroke-linejoin="round"/>
<path d="M33.0071 16.7907H23.4531" stroke="#16EEBA" stroke-width="1.5" stroke-linecap="round" stroke-linejoin="round"/>
<path d="M50.4173 31.1605C57.0456 34.4746 65.1056 42.5346 68.4197 49.1629C71.7339 55.7912 69.0472 58.4778 62.419 55.1637C55.7907 51.8495 47.7307 43.7896 44.4165 37.1613C41.1024 30.533 43.789 27.8463 50.4173 31.1605" stroke="#16EEBA" stroke-width="1.5" stroke-linecap="round" stroke-linejoin="round"/>
<path d="M62.419 31.1614C69.0473 27.8472 71.7339 30.5339 68.4197 37.1622C65.1056 43.7905 57.0456 51.8504 50.4173 55.1646C43.789 58.4787 41.1024 55.7921 44.4165 49.1638C47.7307 42.5355 55.7907 34.4755 62.419 31.1614" stroke="#16EEBA" stroke-width="1.5" stroke-linecap="round" stroke-linejoin="round"/>
<path d="M56.9533 43.1626C56.9533 43.4732 56.7103 43.7252 56.4103 43.7252C56.1102 43.7252 55.8672 43.4732 55.8672 43.1626C55.8672 42.8521 56.1102 42.6001 56.4103 42.6001C56.7103 42.6001 56.9533 42.8521 56.9533 43.1626Z" stroke="#16EEBA" stroke-width="1.5" stroke-linecap="round" stroke-linejoin="round"/>
</svg>
