<svg width="320" height="320" viewBox="0 0 320 320" fill="none" xmlns="http://www.w3.org/2000/svg">
<path opacity="0.25" d="M134.3 92.3193C140.333 88.836 147.766 88.836 153.8 92.3193L183.977 109.742C190.011 113.226 193.727 119.663 193.727 126.63V161.476C193.727 168.443 190.011 174.88 183.977 178.364L153.8 195.787C147.766 199.27 140.333 199.27 134.3 195.787L104.122 178.364C98.0886 174.88 94.3719 168.443 94.3719 161.476V126.63C94.3719 119.663 98.0886 113.226 104.122 109.742L134.3 92.3193Z" fill="#16EEBA" stroke="#16EEBA"/>
<path opacity="0.75" d="M150.502 42.7855C156.381 39.3915 163.624 39.3915 169.502 42.7855L256.763 93.1654C262.641 96.5594 266.263 102.832 266.263 109.62V210.38C266.263 217.168 262.641 223.44 256.763 226.834L169.502 277.214C163.624 280.608 156.381 280.608 150.502 277.214L63.2417 226.834C57.3631 223.44 53.7417 217.168 53.7417 210.38V109.62C53.7417 102.832 57.3631 96.5594 63.2417 93.1654L150.502 42.7855Z" stroke="#16EEBA" stroke-width="2"/>
<path opacity="0.5" d="M150.497 25.7758C156.375 22.3817 163.618 22.3817 169.497 25.7758L271.488 84.6606C277.367 88.0547 280.988 94.3271 280.988 101.115V218.885C280.988 225.673 277.367 231.945 271.488 235.339L169.497 294.224C163.618 297.618 156.375 297.618 150.497 294.224L48.505 235.339C42.6264 231.945 39.005 225.673 39.005 218.885V101.115C39.005 94.3271 42.6264 88.0547 48.505 84.6606L150.497 25.7758Z" stroke="#16EEBA" stroke-opacity="0.5" stroke-width="2"/>
<path opacity="0.25" d="M150.25 6.20651C156.283 2.72317 163.717 2.72318 169.75 6.20651L288.314 74.6595C294.347 78.1428 298.064 84.5803 298.064 91.547V228.453C298.064 235.42 294.347 241.857 288.314 245.34L169.75 313.793C163.717 317.277 156.283 317.277 150.25 313.793L31.6859 245.34C25.6526 241.857 21.9359 235.42 21.9359 228.453V91.547C21.9359 84.5803 25.6526 78.1429 31.6859 74.6595L150.25 6.20651Z" stroke="#16EEBA"/>
<path d="M101.391 149.79V135.106V135.103C101.391 130.371 103.957 126.012 108.094 123.715L120.926 116.587" stroke="#16EEBA" stroke-width="1.5" stroke-linecap="round" stroke-linejoin="round"/>
<path d="M218.582 170.21V184.894V184.891C218.582 189.62 216.018 193.978 211.884 196.275L199.047 203.413" stroke="#16EEBA" stroke-width="1.5" stroke-linecap="round" stroke-linejoin="round"/>
<path d="M142.906 150.533L159.993 160.001L177.079 150.533" stroke="#16EEBA" stroke-width="1.5" stroke-linecap="round" stroke-linejoin="round"/>
<path d="M159.984 160V179.535" stroke="#16EEBA" stroke-width="1.5" stroke-linecap="round" stroke-linejoin="round"/>
<path d="M218.582 149.79V135.106V135.109C218.582 130.38 216.018 126.022 211.884 123.725L199.047 116.587" stroke="#16EEBA" stroke-width="1.5" stroke-linecap="round" stroke-linejoin="round"/>
<path d="M101.391 170.21V184.894V184.891C101.391 189.62 103.954 193.978 108.088 196.275L120.926 203.413" stroke="#16EEBA" stroke-width="1.5" stroke-linecap="round" stroke-linejoin="round"/>
<path d="M179.523 214.261L166.311 221.6V221.6C162.377 223.786 157.593 223.786 153.659 221.6L140.453 214.261" stroke="#16EEBA" stroke-width="1.5" stroke-linecap="round" stroke-linejoin="round"/>
<path d="M140.453 105.739L153.665 98.4004L153.665 98.4004C157.599 96.2142 162.383 96.2142 166.317 98.4004L179.523 105.739" stroke="#16EEBA" stroke-width="1.5" stroke-linecap="round" stroke-linejoin="round"/>
</svg>
