<svg width="521" height="520" viewBox="0 0 521 520" fill="none" xmlns="http://www.w3.org/2000/svg">
<g clip-path="url(#clip0_1133_16593)">
<g clip-path="url(#clip1_1133_16593)">
<path d="M289.321 456.502C277.616 479.832 244.384 479.833 232.679 456.503L75.9191 144.036C65.3206 122.91 80.645 98 104.24 98L417.76 98C441.355 98 456.68 122.91 446.081 144.036L289.321 456.502Z" stroke="#E72561" stroke-opacity="0.05" stroke-width="4" stroke-linecap="round" stroke-linejoin="round"/>
<path d="M284.964 422.202C275.06 441.933 246.94 441.933 237.036 422.202L104.393 157.935C95.4251 140.068 108.392 119 128.357 119L393.643 119C413.608 119 426.575 140.068 417.607 157.935L284.964 422.202Z" stroke="#E72561" stroke-opacity="0.15" stroke-width="4" stroke-linecap="round" stroke-linejoin="round"/>
<g filter="url(#filter0_dd_1133_16593)">
<path d="M330.802 201.826C326.737 209.885 315.195 209.885 311.13 201.827L256.687 93.901C253.006 86.6042 258.328 78.0002 266.523 78.0002L375.41 78.0002C383.605 78.0002 388.927 86.6042 385.246 93.901L330.802 201.826Z" fill="#DFE7ED"/>
</g>
<g filter="url(#filter1_dd_1133_16593)">
<path d="M367.784 298.463C365.394 303.179 358.606 303.179 356.216 298.463L324.198 235.305C322.034 231.035 325.164 226 329.983 226L394.017 226C398.836 226 401.966 231.035 399.802 235.305L367.784 298.463Z" fill="#DFE7ED"/>
</g>
<g filter="url(#filter2_dd_1133_16593)">
<path fill-rule="evenodd" clip-rule="evenodd" d="M240.943 390.621C249.232 407.126 272.768 407.126 281.057 390.621L392.079 169.568C399.585 154.623 388.732 137 372.021 137L149.979 137C133.268 137 122.415 154.623 129.921 169.568L240.943 390.621ZM240.994 312.568C249.32 328.937 272.68 328.937 281.006 312.568L335.113 206.189C342.717 191.238 331.867 173.519 315.107 173.519L206.893 173.519C190.133 173.519 179.283 191.238 186.887 206.189L240.994 312.568Z" fill="#DFE7ED"/>
</g>
<g filter="url(#filter3_dd_1133_16593)">
<path fill-rule="evenodd" clip-rule="evenodd" d="M244.248 370.669C251.171 384.444 270.829 384.444 277.752 370.669L370.478 186.181C376.747 173.708 367.682 159 353.726 159L168.274 159C154.318 159 145.253 173.708 151.522 186.181L244.248 370.669ZM244.291 305.527C251.244 319.188 270.755 319.188 277.709 305.527L322.899 216.744C329.251 204.266 320.189 189.478 306.19 189.478L215.81 189.478C201.811 189.478 192.749 204.266 199.101 216.744L244.291 305.527Z" fill="#DFE7ED"/>
</g>
<g filter="url(#filter4_dd_1133_16593)">
<path fill-rule="evenodd" clip-rule="evenodd" d="M247.253 349.53C252.934 360.823 269.066 360.823 274.747 349.53L350.84 198.283C355.985 188.058 348.546 176 337.093 176L184.907 176C173.454 176 166.015 188.058 171.16 198.283L247.253 349.53ZM247.288 296.125C252.994 307.325 269.006 307.325 274.712 296.125L311.796 223.34C317.009 213.11 309.572 200.987 298.084 200.987L223.916 200.987C212.428 200.987 204.991 213.11 210.204 223.34L247.288 296.125Z" fill="#DFE7ED"/>
</g>
<g filter="url(#filter5_dd_1133_16593)">
<path fill-rule="evenodd" clip-rule="evenodd" d="M250.258 327.392C254.697 336.203 267.303 336.203 271.742 327.392L331.203 209.386C335.223 201.408 329.411 192 320.461 192L201.539 192C192.589 192 186.777 201.408 190.797 209.386L250.258 327.392ZM250.285 285.724C254.744 294.462 267.256 294.462 271.715 285.724L300.693 228.936C304.766 220.954 298.955 211.495 289.979 211.495L232.021 211.495C223.045 211.495 217.234 220.954 221.307 228.936L250.285 285.724Z" fill="#DFE7ED"/>
</g>
<g filter="url(#filter6_dd_1133_16593)">
<path fill-rule="evenodd" clip-rule="evenodd" d="M253.262 305.253C256.46 311.582 265.54 311.582 268.738 305.253L311.566 220.489C314.461 214.758 310.275 208 303.828 208L218.172 208C211.725 208 207.538 214.758 210.434 220.489L253.262 305.253ZM253.282 275.323C256.494 281.6 265.506 281.6 268.718 275.323L289.59 234.531C292.524 228.798 288.338 222.004 281.873 222.004L240.127 222.004C233.662 222.004 229.476 228.798 232.41 234.531L253.282 275.323Z" fill="#DFE7ED"/>
</g>
<g filter="url(#filter7_dd_1133_16593)">
<path fill-rule="evenodd" clip-rule="evenodd" d="M112.788 333.111C109.485 326.529 100.107 326.529 96.804 333.111L52.568 421.275C49.5773 427.236 53.9016 434.265 60.5598 434.265L149.032 434.265C155.69 434.265 160.014 427.236 157.023 421.275L112.788 333.111ZM112.767 364.242C109.45 357.713 100.142 357.713 96.8245 364.242L75.2659 406.669C72.2358 412.633 76.559 419.699 83.2371 419.699L126.354 419.7C133.033 419.7 137.356 412.633 134.326 406.669L112.767 364.242Z" fill="#DFE7ED"/>
</g>
<g filter="url(#filter8_dd_1133_16593)">
<path fill-rule="evenodd" clip-rule="evenodd" d="M111.085 347.769C108.57 342.744 101.43 342.744 98.9152 347.769L65.2346 415.083C62.9575 419.634 66.25 425 71.3194 425L138.681 425C143.75 425 147.043 419.634 144.765 415.083L111.085 347.769ZM111.069 371.538C108.543 366.553 101.457 366.553 98.9308 371.538L82.5164 403.931C80.2093 408.484 83.5009 413.88 88.5856 413.88L121.414 413.88C126.499 413.88 129.791 408.484 127.484 403.931L111.069 371.538Z" fill="#DFE7ED"/>
</g>
<g filter="url(#filter9_dd_1133_16593)">
<path fill-rule="evenodd" clip-rule="evenodd" d="M108.981 364.466C107.336 361.178 102.664 361.178 101.019 364.466L78.9807 408.511C77.4907 411.489 79.645 415 82.9621 415L127.038 415C130.355 415 132.509 411.489 131.019 408.511L108.981 364.466ZM108.971 380.018C107.319 376.757 102.681 376.757 101.029 380.018L90.2885 401.214C88.779 404.193 90.9327 407.724 94.2597 407.724L115.74 407.724C119.067 407.724 121.221 404.193 119.711 401.214L108.971 380.018Z" fill="#DFE7ED"/>
</g>
<path opacity="0.1" d="M95.896 309.643C99.6604 302.119 110.34 302.119 114.104 309.643L174.396 430.142C177.814 436.973 172.865 445 165.292 445L44.7076 445C37.1354 445 32.1856 436.973 35.6036 430.142L95.896 309.643Z" stroke="#E72561" stroke-width="4"/>
<path opacity="0.05" d="M92.739 283.554C97.806 273.482 112.194 273.482 117.261 283.554L195.017 438.126C199.605 447.244 192.973 458 182.756 458L27.2436 458C17.0271 458 10.3954 447.244 14.9826 438.126L92.739 283.554Z" stroke="#E72561" stroke-width="4"/>
<g filter="url(#filter10_dd_1133_16593)">
<path fill-rule="evenodd" clip-rule="evenodd" d="M424.788 333.111C421.485 326.529 412.107 326.529 408.804 333.111L364.568 421.275C361.577 427.236 365.902 434.265 372.56 434.265L461.032 434.265C467.69 434.265 472.014 427.236 469.023 421.275L424.788 333.111ZM424.767 364.242C421.45 357.713 412.142 357.713 408.825 364.242L387.266 406.669C384.236 412.633 388.559 419.699 395.237 419.699L438.354 419.7C445.033 419.7 449.356 412.633 446.326 406.669L424.767 364.242Z" fill="#DFE7ED"/>
</g>
<g filter="url(#filter11_dd_1133_16593)">
<path fill-rule="evenodd" clip-rule="evenodd" d="M423.085 347.769C420.57 342.744 413.43 342.744 410.915 347.769L377.235 415.083C374.957 419.634 378.25 425 383.319 425L450.681 425C455.75 425 459.043 419.634 456.765 415.083L423.085 347.769ZM423.069 371.538C420.543 366.553 413.457 366.553 410.931 371.538L394.516 403.931C392.209 408.484 395.501 413.88 400.586 413.88L433.414 413.88C438.499 413.88 441.791 408.484 439.484 403.931L423.069 371.538Z" fill="#DFE7ED"/>
</g>
<g filter="url(#filter12_dd_1133_16593)">
<path fill-rule="evenodd" clip-rule="evenodd" d="M420.981 364.466C419.336 361.178 414.664 361.178 413.019 364.466L390.981 408.511C389.491 411.489 391.645 415 394.962 415L439.038 415C442.355 415 444.509 411.489 443.019 408.511L420.981 364.466ZM420.971 380.018C419.319 376.757 414.681 376.757 413.029 380.018L402.289 401.214C400.779 404.193 402.933 407.724 406.26 407.724L427.74 407.724C431.067 407.724 433.221 404.193 431.711 401.214L420.971 380.018Z" fill="#DFE7ED"/>
</g>
<path opacity="0.1" d="M407.896 309.643C411.66 302.119 422.34 302.119 426.104 309.643L486.396 430.142C489.814 436.973 484.865 445 477.292 445L356.708 445C349.135 445 344.186 436.973 347.604 430.142L407.896 309.643Z" stroke="#E72561" stroke-width="4"/>
<path opacity="0.05" d="M404.739 283.554C409.806 273.482 424.194 273.482 429.261 283.554L507.017 438.126C511.605 447.244 504.973 458 494.756 458L339.244 458C329.027 458 322.395 447.244 326.983 438.126L404.739 283.554Z" stroke="#E72561" stroke-width="4"/>
</g>
</g>
<defs>
<filter id="filter0_dd_1133_16593" x="115.5" y="-42" width="410.934" height="369.87" filterUnits="userSpaceOnUse" color-interpolation-filters="sRGB">
<feFlood flood-opacity="0" result="BackgroundImageFix"/>
<feColorMatrix in="SourceAlpha" type="matrix" values="0 0 0 0 0 0 0 0 0 0 0 0 0 0 0 0 0 0 127 0" result="hardAlpha"/>
<feOffset dx="-50" dy="-30"/>
<feGaussianBlur stdDeviation="45"/>
<feColorMatrix type="matrix" values="0 0 0 0 0.968627 0 0 0 0 0.976471 0 0 0 0 0.984314 0 0 0 0.6 0"/>
<feBlend mode="normal" in2="BackgroundImageFix" result="effect1_dropShadow_1133_16593"/>
<feColorMatrix in="SourceAlpha" type="matrix" values="0 0 0 0 0 0 0 0 0 0 0 0 0 0 0 0 0 0 127 0" result="hardAlpha"/>
<feOffset dx="50" dy="30"/>
<feGaussianBlur stdDeviation="45"/>
<feColorMatrix type="matrix" values="0 0 0 0 0.752941 0 0 0 0 0.811765 0 0 0 0 0.85098 0 0 0 0.9 0"/>
<feBlend mode="normal" in2="effect1_dropShadow_1133_16593" result="effect2_dropShadow_1133_16593"/>
<feBlend mode="normal" in="SourceGraphic" in2="effect2_dropShadow_1133_16593" result="shape"/>
</filter>
<filter id="filter1_dd_1133_16593" x="273.5" y="186" width="177" height="156" filterUnits="userSpaceOnUse" color-interpolation-filters="sRGB">
<feFlood flood-opacity="0" result="BackgroundImageFix"/>
<feColorMatrix in="SourceAlpha" type="matrix" values="0 0 0 0 0 0 0 0 0 0 0 0 0 0 0 0 0 0 127 0" result="hardAlpha"/>
<feOffset dx="-20" dy="-10"/>
<feGaussianBlur stdDeviation="15"/>
<feColorMatrix type="matrix" values="0 0 0 0 0.968627 0 0 0 0 0.976471 0 0 0 0 0.984314 0 0 0 0.6 0"/>
<feBlend mode="normal" in2="BackgroundImageFix" result="effect1_dropShadow_1133_16593"/>
<feColorMatrix in="SourceAlpha" type="matrix" values="0 0 0 0 0 0 0 0 0 0 0 0 0 0 0 0 0 0 127 0" result="hardAlpha"/>
<feOffset dx="20" dy="10"/>
<feGaussianBlur stdDeviation="15"/>
<feColorMatrix type="matrix" values="0 0 0 0 0.752941 0 0 0 0 0.811765 0 0 0 0 0.85098 0 0 0 0.9 0"/>
<feBlend mode="normal" in2="effect1_dropShadow_1133_16593" result="effect2_dropShadow_1133_16593"/>
<feBlend mode="normal" in="SourceGraphic" in2="effect2_dropShadow_1133_16593" result="shape"/>
</filter>
<filter id="filter2_dd_1133_16593" x="-12.5" y="17" width="547" height="506" filterUnits="userSpaceOnUse" color-interpolation-filters="sRGB">
<feFlood flood-opacity="0" result="BackgroundImageFix"/>
<feColorMatrix in="SourceAlpha" type="matrix" values="0 0 0 0 0 0 0 0 0 0 0 0 0 0 0 0 0 0 127 0" result="hardAlpha"/>
<feOffset dx="-50" dy="-30"/>
<feGaussianBlur stdDeviation="45"/>
<feColorMatrix type="matrix" values="0 0 0 0 0.968627 0 0 0 0 0.976471 0 0 0 0 0.984314 0 0 0 0.6 0"/>
<feBlend mode="normal" in2="BackgroundImageFix" result="effect1_dropShadow_1133_16593"/>
<feColorMatrix in="SourceAlpha" type="matrix" values="0 0 0 0 0 0 0 0 0 0 0 0 0 0 0 0 0 0 127 0" result="hardAlpha"/>
<feOffset dx="50" dy="30"/>
<feGaussianBlur stdDeviation="45"/>
<feColorMatrix type="matrix" values="0 0 0 0 0.752941 0 0 0 0 0.811765 0 0 0 0 0.85098 0 0 0 0.9 0"/>
<feBlend mode="normal" in2="effect1_dropShadow_1133_16593" result="effect2_dropShadow_1133_16593"/>
<feBlend mode="normal" in="SourceGraphic" in2="effect2_dropShadow_1133_16593" result="shape"/>
</filter>
<filter id="filter3_dd_1133_16593" x="124.5" y="139" width="273" height="262" filterUnits="userSpaceOnUse" color-interpolation-filters="sRGB">
<feFlood flood-opacity="0" result="BackgroundImageFix"/>
<feColorMatrix in="SourceAlpha" type="matrix" values="0 0 0 0 0 0 0 0 0 0 0 0 0 0 0 0 0 0 127 0" result="hardAlpha"/>
<feOffset dx="-10" dy="-5"/>
<feGaussianBlur stdDeviation="7.5"/>
<feColorMatrix type="matrix" values="0 0 0 0 0.968627 0 0 0 0 0.976471 0 0 0 0 0.984314 0 0 0 0.6 0"/>
<feBlend mode="normal" in2="BackgroundImageFix" result="effect1_dropShadow_1133_16593"/>
<feColorMatrix in="SourceAlpha" type="matrix" values="0 0 0 0 0 0 0 0 0 0 0 0 0 0 0 0 0 0 127 0" result="hardAlpha"/>
<feOffset dx="10" dy="5"/>
<feGaussianBlur stdDeviation="7.5"/>
<feColorMatrix type="matrix" values="0 0 0 0 0.752941 0 0 0 0 0.811765 0 0 0 0 0.85098 0 0 0 0.9 0"/>
<feBlend mode="normal" in2="effect1_dropShadow_1133_16593" result="effect2_dropShadow_1133_16593"/>
<feBlend mode="normal" in="SourceGraphic" in2="effect2_dropShadow_1133_16593" result="shape"/>
</filter>
<filter id="filter4_dd_1133_16593" x="144.5" y="156" width="233" height="222" filterUnits="userSpaceOnUse" color-interpolation-filters="sRGB">
<feFlood flood-opacity="0" result="BackgroundImageFix"/>
<feColorMatrix in="SourceAlpha" type="matrix" values="0 0 0 0 0 0 0 0 0 0 0 0 0 0 0 0 0 0 127 0" result="hardAlpha"/>
<feOffset dx="-10" dy="-5"/>
<feGaussianBlur stdDeviation="7.5"/>
<feColorMatrix type="matrix" values="0 0 0 0 0.968627 0 0 0 0 0.976471 0 0 0 0 0.984314 0 0 0 0.6 0"/>
<feBlend mode="normal" in2="BackgroundImageFix" result="effect1_dropShadow_1133_16593"/>
<feColorMatrix in="SourceAlpha" type="matrix" values="0 0 0 0 0 0 0 0 0 0 0 0 0 0 0 0 0 0 127 0" result="hardAlpha"/>
<feOffset dx="10" dy="5"/>
<feGaussianBlur stdDeviation="7.5"/>
<feColorMatrix type="matrix" values="0 0 0 0 0.752941 0 0 0 0 0.811765 0 0 0 0 0.85098 0 0 0 0.9 0"/>
<feBlend mode="normal" in2="effect1_dropShadow_1133_16593" result="effect2_dropShadow_1133_16593"/>
<feBlend mode="normal" in="SourceGraphic" in2="effect2_dropShadow_1133_16593" result="shape"/>
</filter>
<filter id="filter5_dd_1133_16593" x="164.5" y="172" width="193" height="182" filterUnits="userSpaceOnUse" color-interpolation-filters="sRGB">
<feFlood flood-opacity="0" result="BackgroundImageFix"/>
<feColorMatrix in="SourceAlpha" type="matrix" values="0 0 0 0 0 0 0 0 0 0 0 0 0 0 0 0 0 0 127 0" result="hardAlpha"/>
<feOffset dx="-10" dy="-5"/>
<feGaussianBlur stdDeviation="7.5"/>
<feColorMatrix type="matrix" values="0 0 0 0 0.968627 0 0 0 0 0.976471 0 0 0 0 0.984314 0 0 0 0.6 0"/>
<feBlend mode="normal" in2="BackgroundImageFix" result="effect1_dropShadow_1133_16593"/>
<feColorMatrix in="SourceAlpha" type="matrix" values="0 0 0 0 0 0 0 0 0 0 0 0 0 0 0 0 0 0 127 0" result="hardAlpha"/>
<feOffset dx="10" dy="5"/>
<feGaussianBlur stdDeviation="7.5"/>
<feColorMatrix type="matrix" values="0 0 0 0 0.752941 0 0 0 0 0.811765 0 0 0 0 0.85098 0 0 0 0.9 0"/>
<feBlend mode="normal" in2="effect1_dropShadow_1133_16593" result="effect2_dropShadow_1133_16593"/>
<feBlend mode="normal" in="SourceGraphic" in2="effect2_dropShadow_1133_16593" result="shape"/>
</filter>
<filter id="filter6_dd_1133_16593" x="184.5" y="188" width="153" height="142" filterUnits="userSpaceOnUse" color-interpolation-filters="sRGB">
<feFlood flood-opacity="0" result="BackgroundImageFix"/>
<feColorMatrix in="SourceAlpha" type="matrix" values="0 0 0 0 0 0 0 0 0 0 0 0 0 0 0 0 0 0 127 0" result="hardAlpha"/>
<feOffset dx="-10" dy="-5"/>
<feGaussianBlur stdDeviation="7.5"/>
<feColorMatrix type="matrix" values="0 0 0 0 0.968627 0 0 0 0 0.976471 0 0 0 0 0.984314 0 0 0 0.6 0"/>
<feBlend mode="normal" in2="BackgroundImageFix" result="effect1_dropShadow_1133_16593"/>
<feColorMatrix in="SourceAlpha" type="matrix" values="0 0 0 0 0 0 0 0 0 0 0 0 0 0 0 0 0 0 127 0" result="hardAlpha"/>
<feOffset dx="10" dy="5"/>
<feGaussianBlur stdDeviation="7.5"/>
<feColorMatrix type="matrix" values="0 0 0 0 0.752941 0 0 0 0 0.811765 0 0 0 0 0.85098 0 0 0 0.9 0"/>
<feBlend mode="normal" in2="effect1_dropShadow_1133_16593" result="effect2_dropShadow_1133_16593"/>
<feBlend mode="normal" in="SourceGraphic" in2="effect2_dropShadow_1133_16593" result="shape"/>
</filter>
<filter id="filter7_dd_1133_16593" x="1.60156" y="288.174" width="206.387" height="186.091" filterUnits="userSpaceOnUse" color-interpolation-filters="sRGB">
<feFlood flood-opacity="0" result="BackgroundImageFix"/>
<feColorMatrix in="SourceAlpha" type="matrix" values="0 0 0 0 0 0 0 0 0 0 0 0 0 0 0 0 0 0 127 0" result="hardAlpha"/>
<feOffset dx="-20" dy="-10"/>
<feGaussianBlur stdDeviation="15"/>
<feColorMatrix type="matrix" values="0 0 0 0 0.968627 0 0 0 0 0.976471 0 0 0 0 0.984314 0 0 0 0.6 0"/>
<feBlend mode="normal" in2="BackgroundImageFix" result="effect1_dropShadow_1133_16593"/>
<feColorMatrix in="SourceAlpha" type="matrix" values="0 0 0 0 0 0 0 0 0 0 0 0 0 0 0 0 0 0 127 0" result="hardAlpha"/>
<feOffset dx="20" dy="10"/>
<feGaussianBlur stdDeviation="15"/>
<feColorMatrix type="matrix" values="0 0 0 0 0.752941 0 0 0 0 0.811765 0 0 0 0 0.85098 0 0 0 0.9 0"/>
<feBlend mode="normal" in2="effect1_dropShadow_1133_16593" result="effect2_dropShadow_1133_16593"/>
<feBlend mode="normal" in="SourceGraphic" in2="effect2_dropShadow_1133_16593" result="shape"/>
</filter>
<filter id="filter8_dd_1133_16593" x="39.5" y="324" width="131" height="121" filterUnits="userSpaceOnUse" color-interpolation-filters="sRGB">
<feFlood flood-opacity="0" result="BackgroundImageFix"/>
<feColorMatrix in="SourceAlpha" type="matrix" values="0 0 0 0 0 0 0 0 0 0 0 0 0 0 0 0 0 0 127 0" result="hardAlpha"/>
<feOffset dx="-10" dy="-5"/>
<feGaussianBlur stdDeviation="7.5"/>
<feColorMatrix type="matrix" values="0 0 0 0 0.968627 0 0 0 0 0.976471 0 0 0 0 0.984314 0 0 0 0.6 0"/>
<feBlend mode="normal" in2="BackgroundImageFix" result="effect1_dropShadow_1133_16593"/>
<feColorMatrix in="SourceAlpha" type="matrix" values="0 0 0 0 0 0 0 0 0 0 0 0 0 0 0 0 0 0 127 0" result="hardAlpha"/>
<feOffset dx="10" dy="5"/>
<feGaussianBlur stdDeviation="7.5"/>
<feColorMatrix type="matrix" values="0 0 0 0 0.752941 0 0 0 0 0.811765 0 0 0 0 0.85098 0 0 0 0.9 0"/>
<feBlend mode="normal" in2="effect1_dropShadow_1133_16593" result="effect2_dropShadow_1133_16593"/>
<feBlend mode="normal" in="SourceGraphic" in2="effect2_dropShadow_1133_16593" result="shape"/>
</filter>
<filter id="filter9_dd_1133_16593" x="53.5" y="342" width="103" height="93" filterUnits="userSpaceOnUse" color-interpolation-filters="sRGB">
<feFlood flood-opacity="0" result="BackgroundImageFix"/>
<feColorMatrix in="SourceAlpha" type="matrix" values="0 0 0 0 0 0 0 0 0 0 0 0 0 0 0 0 0 0 127 0" result="hardAlpha"/>
<feOffset dx="-10" dy="-5"/>
<feGaussianBlur stdDeviation="7.5"/>
<feColorMatrix type="matrix" values="0 0 0 0 0.968627 0 0 0 0 0.976471 0 0 0 0 0.984314 0 0 0 0.6 0"/>
<feBlend mode="normal" in2="BackgroundImageFix" result="effect1_dropShadow_1133_16593"/>
<feColorMatrix in="SourceAlpha" type="matrix" values="0 0 0 0 0 0 0 0 0 0 0 0 0 0 0 0 0 0 127 0" result="hardAlpha"/>
<feOffset dx="10" dy="5"/>
<feGaussianBlur stdDeviation="7.5"/>
<feColorMatrix type="matrix" values="0 0 0 0 0.752941 0 0 0 0 0.811765 0 0 0 0 0.85098 0 0 0 0.9 0"/>
<feBlend mode="normal" in2="effect1_dropShadow_1133_16593" result="effect2_dropShadow_1133_16593"/>
<feBlend mode="normal" in="SourceGraphic" in2="effect2_dropShadow_1133_16593" result="shape"/>
</filter>
<filter id="filter10_dd_1133_16593" x="313.602" y="288.174" width="206.387" height="186.091" filterUnits="userSpaceOnUse" color-interpolation-filters="sRGB">
<feFlood flood-opacity="0" result="BackgroundImageFix"/>
<feColorMatrix in="SourceAlpha" type="matrix" values="0 0 0 0 0 0 0 0 0 0 0 0 0 0 0 0 0 0 127 0" result="hardAlpha"/>
<feOffset dx="-20" dy="-10"/>
<feGaussianBlur stdDeviation="15"/>
<feColorMatrix type="matrix" values="0 0 0 0 0.968627 0 0 0 0 0.976471 0 0 0 0 0.984314 0 0 0 0.6 0"/>
<feBlend mode="normal" in2="BackgroundImageFix" result="effect1_dropShadow_1133_16593"/>
<feColorMatrix in="SourceAlpha" type="matrix" values="0 0 0 0 0 0 0 0 0 0 0 0 0 0 0 0 0 0 127 0" result="hardAlpha"/>
<feOffset dx="20" dy="10"/>
<feGaussianBlur stdDeviation="15"/>
<feColorMatrix type="matrix" values="0 0 0 0 0.752941 0 0 0 0 0.811765 0 0 0 0 0.85098 0 0 0 0.9 0"/>
<feBlend mode="normal" in2="effect1_dropShadow_1133_16593" result="effect2_dropShadow_1133_16593"/>
<feBlend mode="normal" in="SourceGraphic" in2="effect2_dropShadow_1133_16593" result="shape"/>
</filter>
<filter id="filter11_dd_1133_16593" x="351.5" y="324" width="131" height="121" filterUnits="userSpaceOnUse" color-interpolation-filters="sRGB">
<feFlood flood-opacity="0" result="BackgroundImageFix"/>
<feColorMatrix in="SourceAlpha" type="matrix" values="0 0 0 0 0 0 0 0 0 0 0 0 0 0 0 0 0 0 127 0" result="hardAlpha"/>
<feOffset dx="-10" dy="-5"/>
<feGaussianBlur stdDeviation="7.5"/>
<feColorMatrix type="matrix" values="0 0 0 0 0.968627 0 0 0 0 0.976471 0 0 0 0 0.984314 0 0 0 0.6 0"/>
<feBlend mode="normal" in2="BackgroundImageFix" result="effect1_dropShadow_1133_16593"/>
<feColorMatrix in="SourceAlpha" type="matrix" values="0 0 0 0 0 0 0 0 0 0 0 0 0 0 0 0 0 0 127 0" result="hardAlpha"/>
<feOffset dx="10" dy="5"/>
<feGaussianBlur stdDeviation="7.5"/>
<feColorMatrix type="matrix" values="0 0 0 0 0.752941 0 0 0 0 0.811765 0 0 0 0 0.85098 0 0 0 0.9 0"/>
<feBlend mode="normal" in2="effect1_dropShadow_1133_16593" result="effect2_dropShadow_1133_16593"/>
<feBlend mode="normal" in="SourceGraphic" in2="effect2_dropShadow_1133_16593" result="shape"/>
</filter>
<filter id="filter12_dd_1133_16593" x="365.5" y="342" width="103" height="93" filterUnits="userSpaceOnUse" color-interpolation-filters="sRGB">
<feFlood flood-opacity="0" result="BackgroundImageFix"/>
<feColorMatrix in="SourceAlpha" type="matrix" values="0 0 0 0 0 0 0 0 0 0 0 0 0 0 0 0 0 0 127 0" result="hardAlpha"/>
<feOffset dx="-10" dy="-5"/>
<feGaussianBlur stdDeviation="7.5"/>
<feColorMatrix type="matrix" values="0 0 0 0 0.968627 0 0 0 0 0.976471 0 0 0 0 0.984314 0 0 0 0.6 0"/>
<feBlend mode="normal" in2="BackgroundImageFix" result="effect1_dropShadow_1133_16593"/>
<feColorMatrix in="SourceAlpha" type="matrix" values="0 0 0 0 0 0 0 0 0 0 0 0 0 0 0 0 0 0 127 0" result="hardAlpha"/>
<feOffset dx="10" dy="5"/>
<feGaussianBlur stdDeviation="7.5"/>
<feColorMatrix type="matrix" values="0 0 0 0 0.752941 0 0 0 0 0.811765 0 0 0 0 0.85098 0 0 0 0.9 0"/>
<feBlend mode="normal" in2="effect1_dropShadow_1133_16593" result="effect2_dropShadow_1133_16593"/>
<feBlend mode="normal" in="SourceGraphic" in2="effect2_dropShadow_1133_16593" result="shape"/>
</filter>
<clipPath id="clip0_1133_16593">
<rect width="520" height="520" fill="white" transform="translate(0.5)"/>
</clipPath>
<clipPath id="clip1_1133_16593">
<rect width="520" height="520" fill="white" transform="translate(0.5)"/>
</clipPath>
</defs>
</svg>
