<svg width="1150" height="1134" viewBox="0 0 1150 1134" fill="none" xmlns="http://www.w3.org/2000/svg">
<g opacity="0.5">
<g opacity="0.5">
<circle opacity="0.1" cx="923.798" cy="665.845" r="49.6774" fill="#E72561"/>
<path fill-rule="evenodd" clip-rule="evenodd" d="M926.52 685.474L944.651 667.339C945.439 666.551 945.439 665.273 944.651 664.484L926.52 646.349C925.737 645.563 924.451 645.563 923.667 646.349L905.536 664.484C904.748 665.271 904.748 666.549 905.536 667.339L923.667 685.474C924.451 686.258 925.737 686.258 926.52 685.474Z" stroke="#E72561" stroke-width="3" stroke-linecap="round" stroke-linejoin="round"/>
<path fill-rule="evenodd" clip-rule="evenodd" d="M919.899 683.175L938.03 665.04C938.818 664.253 938.818 662.975 938.03 662.185L919.899 644.05C919.115 643.264 917.83 643.264 917.046 644.05L898.915 662.185C898.127 662.973 898.127 664.251 898.915 665.04L917.046 683.175C917.83 683.959 919.115 683.959 919.899 683.175Z" fill="#E72561" fill-opacity="0.25"/>
<path fill-rule="evenodd" clip-rule="evenodd" d="M925.557 685.218L933.155 667.655L925.571 646.222C925.412 645.774 924.779 645.774 924.622 646.222L917.035 667.655L924.634 685.22C924.807 685.623 925.383 685.623 925.557 685.218V685.218Z" stroke="#E72561" stroke-width="3" stroke-linecap="round" stroke-linejoin="round"/>
<path d="M904.953 665.857L918.109 668.009H932.077L945.233 665.857" stroke="#E72561" stroke-width="3" stroke-linecap="round" stroke-linejoin="round"/>
<circle opacity="0.1" cx="548.939" cy="572.13" r="48.6537" fill="#E72561"/>
<path d="M528.891 568.566V562.353C528.891 561.56 529.329 560.829 530.036 560.444L535.574 557.427" stroke="#E72561" stroke-width="3" stroke-linecap="round" stroke-linejoin="round"/>
<path d="M555.62 590.843L550.017 593.704C549.345 594.048 548.526 594.048 547.854 593.704L542.254 590.843" stroke="#E72561" stroke-width="3" stroke-linecap="round" stroke-linejoin="round"/>
<path d="M568.988 575.695V581.904C568.988 582.697 568.55 583.428 567.843 583.814L562.305 586.833" stroke="#E72561" stroke-width="3" stroke-linecap="round" stroke-linejoin="round"/>
<path d="M542.254 553.417L547.857 550.556C548.53 550.212 549.348 550.213 550.021 550.556L555.62 553.417" stroke="#E72561" stroke-width="3" stroke-linecap="round" stroke-linejoin="round"/>
<path d="M548.938 550.298V556.536" stroke="#E72561" stroke-width="3" stroke-linecap="round" stroke-linejoin="round"/>
<path d="M548.938 587.724V593.962" stroke="#E72561" stroke-width="3" stroke-linecap="round" stroke-linejoin="round"/>
<path d="M529.336 560.992L534.682 564.11" stroke="#E72561" stroke-width="3" stroke-linecap="round" stroke-linejoin="round"/>
<path d="M563.195 580.15L568.542 583.269" stroke="#E72561" stroke-width="3" stroke-linecap="round" stroke-linejoin="round"/>
<path d="M568.988 568.566V562.356C568.988 561.563 568.55 560.832 567.843 560.447L562.305 557.427" stroke="#E72561" stroke-width="3" stroke-linecap="round" stroke-linejoin="round"/>
<path d="M528.891 575.695V581.904C528.891 582.697 529.329 583.428 530.036 583.814L535.574 586.833" stroke="#E72561" stroke-width="3" stroke-linecap="round" stroke-linejoin="round"/>
<path d="M568.542 560.992L563.195 564.11" stroke="#E72561" stroke-width="3" stroke-linecap="round" stroke-linejoin="round"/>
<path fill-rule="evenodd" clip-rule="evenodd" d="M547.888 581.208L541.539 577.579C540.88 577.202 540.473 576.5 540.473 575.741V568.52C540.473 567.76 540.88 567.059 541.539 566.682L547.888 563.053C548.539 562.681 549.337 562.681 549.988 563.053L556.337 566.682C556.997 567.059 557.403 567.76 557.403 568.52V575.741C557.403 576.5 556.997 577.202 556.337 577.579L549.988 581.208C549.337 581.58 548.539 581.58 547.888 581.208V581.208Z" stroke="#E72561" stroke-width="3" stroke-linecap="round" stroke-linejoin="round"/>
<path fill-rule="evenodd" clip-rule="evenodd" d="M543.88 578.98L537.531 575.351C536.872 574.974 536.465 574.273 536.465 573.513V566.292C536.465 565.533 536.872 564.831 537.531 564.454L543.88 560.825C544.531 560.453 545.33 560.453 545.98 560.825L552.329 564.454C552.989 564.831 553.396 565.533 553.396 566.292V573.513C553.396 574.273 552.989 574.974 552.329 575.351L545.98 578.98C545.33 579.352 544.531 579.352 543.88 578.98Z" fill="#E72561" fill-opacity="0.25"/>
<path d="M540.918 567.675L548.938 572.13" stroke="#E72561" stroke-width="3" stroke-linecap="round" stroke-linejoin="round"/>
<path d="M556.957 567.675L548.938 572.13" stroke="#E72561" stroke-width="3" stroke-linecap="round" stroke-linejoin="round"/>
<path d="M548.938 572.13V581.487" stroke="#E72561" stroke-width="3" stroke-linecap="round" stroke-linejoin="round"/>
<path d="M534.682 580.15L529.336 583.269" stroke="#E72561" stroke-width="3" stroke-linecap="round" stroke-linejoin="round"/>
<circle opacity="0.1" cx="816.694" cy="392.734" r="38.2565" fill="#E72561"/>
<path fill-rule="evenodd" clip-rule="evenodd" d="M815.197 402.543H818.186C818.69 402.573 819.183 402.386 819.54 402.029C819.898 401.672 820.085 401.178 820.054 400.674V395.536L821.923 393.294C822.13 392.953 822.258 392.57 822.297 392.173V388.063C822.328 387.558 822.141 387.065 821.783 386.708C821.426 386.351 820.933 386.164 820.429 386.194H812.954C812.45 386.164 811.956 386.351 811.599 386.708C811.242 387.065 811.055 387.558 811.085 388.063V392.173C811.124 392.57 811.252 392.953 811.46 393.294L813.328 395.536V400.674C813.298 401.178 813.485 401.672 813.842 402.029C814.2 402.386 814.693 402.573 815.197 402.543Z" stroke="#E72561" stroke-width="3" stroke-linecap="round" stroke-linejoin="round"/>
<ellipse cx="816.693" cy="379.187" rx="2.8022" ry="2.8022" stroke="#E72561" stroke-width="3" stroke-linecap="round" stroke-linejoin="round"/>
<path fill-rule="evenodd" clip-rule="evenodd" d="M812.509 400.79H815.498C816.002 400.82 816.496 400.633 816.853 400.276C817.21 399.919 817.397 399.425 817.367 398.921V393.783L819.235 391.541C819.443 391.2 819.571 390.817 819.61 390.42V386.31C819.64 385.805 819.453 385.312 819.096 384.955C818.739 384.598 818.245 384.411 817.741 384.441H810.266C809.762 384.411 809.269 384.598 808.912 384.955C808.554 385.312 808.367 385.805 808.398 386.31V390.42C808.437 390.817 808.565 391.2 808.772 391.541L810.641 393.783V398.921C810.61 399.425 810.798 399.919 811.155 400.276C811.512 400.633 812.005 400.82 812.509 400.79Z" fill="#E72561" fill-opacity="0.25"/>
<ellipse cx="814.005" cy="377.434" rx="2.8022" ry="2.8022" fill="#E72561" fill-opacity="0.25"/>
<path d="M831.407 385.213V401.889" stroke="#E72561" stroke-width="3" stroke-linecap="round" stroke-linejoin="round"/>
<path d="M801.978 401.889V385.213" stroke="#E72561" stroke-width="3" stroke-linecap="round" stroke-linejoin="round"/>
<path d="M831.407 385.213C831.407 382.498 826.25 380.241 819.438 379.754" stroke="#E72561" stroke-width="3" stroke-linecap="round" stroke-linejoin="round"/>
<path d="M813.95 379.754C807.137 380.241 801.98 382.498 801.98 385.213" stroke="#E72561" stroke-width="3" stroke-linecap="round" stroke-linejoin="round"/>
<path d="M813.332 396.483C806.828 397.058 801.98 399.257 801.98 401.889C801.98 404.959 808.567 407.448 816.694 407.448C824.822 407.448 831.409 404.959 831.409 401.889C831.409 399.257 826.561 397.058 820.057 396.483" stroke="#E72561" stroke-width="3" stroke-linecap="round" stroke-linejoin="round"/>
<circle opacity="0.1" cx="639.477" cy="401.477" r="31" fill="#E72561"/>
<circle opacity="0.1" cx="603.477" cy="789.477" r="16" fill="#E72561"/>
<circle opacity="0.1" cx="1010.48" cy="506.477" r="37" fill="#E72561"/>
<circle opacity="0.1" cx="506.477" cy="432.477" r="17" fill="#E72561"/>
<g opacity="0.5">
<path opacity="0.25" d="M974.977 517.477L823.477 544.977" stroke="#E72561" stroke-width="4"/>
<path opacity="0.25" d="M693.977 486.477L655.977 428.977" stroke="#E72561" stroke-width="4"/>
<path opacity="0.25" d="M693.477 620.477L611.477 775.477" stroke="#E72561" stroke-width="4"/>
<path opacity="0.25" d="M519.477 443.477L670.477 515.477" stroke="#E72561" stroke-width="4"/>
</g>
<circle opacity="0.1" cx="732.353" cy="754.205" r="46.1227" fill="#E72561"/>
<path fill-rule="evenodd" clip-rule="evenodd" d="M745.029 764.06H719.685C716.886 764.06 714.617 761.791 714.617 758.992V741.533C714.617 738.734 716.886 736.465 719.685 736.465H745.027C747.827 736.465 750.096 738.734 750.096 741.533V758.99C750.096 761.791 747.827 764.06 745.029 764.06Z" stroke="#E72561" stroke-width="3" stroke-linecap="round" stroke-linejoin="round"/>
<path d="M736.297 764.06L737.283 771.944" stroke="#E72561" stroke-width="3" stroke-linecap="round" stroke-linejoin="round"/>
<path d="M728.416 764.06L727.43 771.944" stroke="#E72561" stroke-width="3" stroke-linecap="round" stroke-linejoin="round"/>
<path d="M724.75 771.944H739.967" stroke="#E72561" stroke-width="3" stroke-linecap="round" stroke-linejoin="round"/>
<path d="M739.727 759.686H731.515C731.517 759.7 731.519 759.714 731.521 759.728L732.298 765.747H735.029C735.48 765.747 735.846 766.113 735.846 766.564C735.846 767.016 735.48 767.381 735.029 767.381H719.957C719.506 767.381 719.14 767.016 719.14 766.564C719.14 766.113 719.506 765.747 719.957 765.747H722.872L723.648 759.728C723.65 759.714 723.652 759.7 723.655 759.686H714.625C711.853 759.686 709.605 757.439 709.605 754.667V737.373C709.605 734.601 711.853 732.354 714.625 732.354H739.725C742.499 732.354 744.747 734.601 744.747 737.373V754.665C744.747 757.439 742.499 759.686 739.727 759.686Z" fill="#E72561" fill-opacity="0.25"/>
<path d="M733.161 749.548L727.098 755.611" stroke="#E72561" stroke-width="3" stroke-linecap="round" stroke-linejoin="round"/>
<path d="M727.75 751.211L724.78 750.509C724.453 750.432 724.338 750.026 724.575 749.789L726.937 747.427C727.095 747.268 727.311 747.177 727.536 747.176L730.199 747.152" stroke="#E72561" stroke-width="3" stroke-linecap="round" stroke-linejoin="round"/>
<path fill-rule="evenodd" clip-rule="evenodd" d="M739.112 747.76L739.805 744.425C739.994 743.518 739.191 742.715 738.284 742.904L734.949 743.597C733.967 743.801 733.067 744.287 732.358 744.996L729.622 747.731C728.579 748.775 727.899 750.129 727.685 751.589L727.676 751.652C727.54 752.584 727.852 753.525 728.518 754.191V754.191C729.183 754.857 730.125 755.169 731.057 755.033L731.12 755.023C732.58 754.81 733.934 754.129 734.978 753.086L737.713 750.351C738.422 749.642 738.908 748.742 739.112 747.76V747.76Z" stroke="#E72561" stroke-width="3" stroke-linecap="round" stroke-linejoin="round"/>
<path d="M733.555 744.104C735.537 745.456 737.251 747.17 738.603 749.152" stroke="#E72561" stroke-width="3" stroke-linecap="round" stroke-linejoin="round"/>
<path d="M731.496 754.957L732.198 757.927C732.275 758.254 732.68 758.369 732.918 758.132L735.28 755.77C735.439 755.612 735.53 755.396 735.531 755.171L735.554 752.508" stroke="#E72561" stroke-width="3" stroke-linecap="round" stroke-linejoin="round"/>
<path opacity="0.25" d="M606.758 563.678L656.962 556.984" stroke="#E72561" stroke-width="4" stroke-dasharray="4 4"/>
<path opacity="0.25" d="M796.863 446.535L776.781 480.674" stroke="#E72561" stroke-width="4" stroke-dasharray="4 4"/>
<path opacity="0.25" d="M866.481 636.642L807.574 603.842" stroke="#E72561" stroke-width="4" stroke-dasharray="4 4"/>
<path opacity="0.25" d="M733.941 691.533V634.635" stroke="#E72561" stroke-width="4" stroke-dasharray="4 4"/>
<g opacity="0.5">
<path d="M729.875 532.095L733.917 536.137L729.875 540.18" stroke="#E72561" stroke-width="3" stroke-linecap="round" stroke-linejoin="round"/>
<path d="M733.912 536.137H728.522C726.378 536.137 724.322 536.989 722.805 538.505C721.289 540.021 720.438 542.077 720.438 544.222" stroke="#E72561" stroke-width="3" stroke-linecap="round" stroke-linejoin="round"/>
<path d="M759.515 583.298L755.473 579.255L759.515 575.213" stroke="#E72561" stroke-width="3" stroke-linecap="round" stroke-linejoin="round"/>
<path d="M755.473 579.255H760.863C763.007 579.255 765.063 578.403 766.579 576.887C768.096 575.371 768.947 573.314 768.947 571.17" stroke="#E72561" stroke-width="3" stroke-linecap="round" stroke-linejoin="round"/>
<path d="M737.955 579.256C735.023 579.256 732.158 578.386 729.72 576.758C727.283 575.129 725.383 572.814 724.261 570.106C723.139 567.397 722.846 564.417 723.418 561.542C723.99 558.667 725.401 556.026 727.474 553.953C729.547 551.88 732.188 550.468 735.063 549.896C737.939 549.324 740.919 549.618 743.627 550.74C746.336 551.861 748.651 553.761 750.279 556.199C751.908 558.636 752.777 561.502 752.777 564.434C752.777 566.38 752.394 568.307 751.649 570.106C750.904 571.904 749.812 573.538 748.436 574.914C747.06 576.291 745.426 577.383 743.627 578.127C741.829 578.872 739.902 579.256 737.955 579.256Z" stroke="#E72561" stroke-width="3" stroke-linecap="round" stroke-linejoin="round"/>
<path d="M735.773 561.681L737.959 559.49V568.243" stroke="#E72561" stroke-width="3" stroke-linecap="round" stroke-linejoin="round"/>
<path d="M735.777 568.25H740.137" stroke="#E72561" stroke-width="3" stroke-linecap="round" stroke-linejoin="round"/>
<path d="M740.953 540.62C743.733 537.84 747.503 536.278 751.434 536.278C755.365 536.278 759.135 537.84 761.915 540.62C764.695 543.399 766.256 547.169 766.256 551.101C766.256 555.032 764.695 558.802 761.915 561.581" stroke="#E72561" stroke-width="3" stroke-linecap="round" stroke-linejoin="round"/>
<circle opacity="0.25" cx="730.731" cy="543.731" r="24.2545" fill="#E72561"/>
</g>
<circle opacity="0.25" cx="741.976" cy="554.978" r="81.3351" stroke="#E72561" stroke-width="2"/>
<circle opacity="0.1" cx="741.977" cy="554.977" r="320.977" stroke="#E72561" stroke-width="2"/>
</g>
<circle opacity="0.1" cx="567" cy="567" r="563" stroke="#E72561" stroke-width="8"/>
<circle opacity="0.05" cx="699.5" cy="634.5" r="449.5" stroke="#E72561" stroke-width="2"/>
</g>
</svg>
