<svg width="1898" height="947" viewBox="0 0 1898 947" fill="none" xmlns="http://www.w3.org/2000/svg">
<g clip-path="url(#clip0_689_7346)">
<rect opacity="0.15" x="-284" y="264" width="390" height="132" rx="23.8996" stroke="#E72561" stroke-width="4" stroke-dasharray="18 18"/>
<g opacity="0.15" filter="url(#filter0_f_689_7346)">
<path d="M151.81 665.93C158.02 665.93 161.26 662.69 161.26 656.48V648.65C161.26 642.44 158.02 639.2 151.81 639.2H129.67C128.86 639.2 128.32 639.74 128.32 640.55V675.65C128.32 676.46 128.86 677 129.67 677H135.61C136.42 677 136.96 676.46 136.96 675.65V665.93H151.81ZM149.65 646.76C151.54 646.76 152.62 647.84 152.62 649.73V655.4C152.62 657.29 151.54 658.37 149.65 658.37H136.96V646.76H149.65ZM178 655.67C179.62 655.67 180.7 656.75 180.7 658.37V660.26H171.25C166.12 660.26 163.42 662.96 163.42 668.09V669.71C163.42 674.84 166.12 677.54 171.25 677.54H175.57C179.62 677.54 180.16 674.3 180.16 674.3H180.7V675.65C180.7 676.46 181.24 677 182.05 677H186.91C187.72 677 188.26 676.46 188.26 675.65V657.29C188.26 651.89 185.29 648.92 179.89 648.92H173.41C168.01 648.92 165.04 651.89 165.04 657.29C165.04 658.1 165.58 658.64 166.39 658.64H171.25C172.06 658.64 172.6 658.1 172.6 657.29C172.6 656.21 173.14 655.67 174.22 655.67H178ZM170.98 668.36C170.98 667.01 171.79 666.2 173.14 666.2H180.7V668.36C180.7 670.25 179.62 671.33 177.73 671.33H173.14C171.79 671.33 170.98 670.52 170.98 669.17V668.36ZM208.217 650.27C208.217 649.46 207.677 648.92 206.867 648.92H204.167C200.117 648.92 199.577 652.16 199.577 652.16H199.037V650.81C199.037 650 198.497 649.46 197.687 649.46H192.827C192.017 649.46 191.477 650 191.477 650.81V675.65C191.477 676.46 192.017 677 192.827 677H197.687C198.497 677 199.037 676.46 199.037 675.65V659.45C199.037 657.56 200.387 656.21 202.277 656.21H206.867C207.677 656.21 208.217 655.67 208.217 654.86V650.27ZM221.723 655.67C223.343 655.67 224.423 656.75 224.423 658.37V660.26H214.973C209.843 660.26 207.143 662.96 207.143 668.09V669.71C207.143 674.84 209.843 677.54 214.973 677.54H219.293C223.343 677.54 223.883 674.3 223.883 674.3H224.423V675.65C224.423 676.46 224.963 677 225.773 677H230.633C231.443 677 231.983 676.46 231.983 675.65V657.29C231.983 651.89 229.013 648.92 223.613 648.92H217.133C211.733 648.92 208.763 651.89 208.763 657.29C208.763 658.1 209.303 658.64 210.113 658.64H214.973C215.783 658.64 216.323 658.1 216.323 657.29C216.323 656.21 216.863 655.67 217.943 655.67H221.723ZM214.703 668.36C214.703 667.01 215.513 666.2 216.863 666.2H224.423V668.36C224.423 670.25 223.343 671.33 221.453 671.33H216.863C215.513 671.33 214.703 670.52 214.703 669.17V668.36ZM247.89 648.92C243.84 648.92 243.3 652.16 243.3 652.16H242.76V650.81C242.76 650 242.22 649.46 241.41 649.46H236.55C235.74 649.46 235.2 650 235.2 650.81V675.65C235.2 676.46 235.74 677 236.55 677H241.41C242.22 677 242.76 676.46 242.76 675.65V658.91C242.76 657.02 244.11 655.67 246 655.67H248.16C249.78 655.67 250.86 656.75 250.86 658.37V675.65C250.86 676.46 251.4 677 252.21 677H257.07C257.88 677 258.42 676.46 258.42 675.65V658.37C258.42 656.75 259.5 655.67 261.12 655.67H263.82C265.44 655.67 266.52 656.75 266.52 658.37V675.65C266.52 676.46 267.06 677 267.87 677H272.73C273.54 677 274.08 676.46 274.08 675.65V657.29C274.08 651.89 271.11 648.92 265.71 648.92H261.12C257.07 648.92 256.53 652.16 256.53 652.16H255.99C255.99 652.16 255.45 648.92 251.4 648.92H247.89ZM287.571 670.79C285.951 670.79 284.871 669.71 284.871 668.09V665.66H301.611C302.421 665.66 302.961 665.12 302.961 664.31V657.29C302.961 651.89 299.991 648.92 294.591 648.92H285.681C280.281 648.92 277.311 651.89 277.311 657.29V669.17C277.311 674.57 280.281 677.54 285.681 677.54H294.321C299.721 677.54 302.691 674.57 302.691 669.17C302.691 668.36 302.151 667.82 301.341 667.82H296.481C295.671 667.82 295.131 668.36 295.131 669.17C295.131 670.25 294.591 670.79 293.511 670.79H287.571ZM284.871 658.1C284.871 656.48 285.951 655.4 287.571 655.4H292.701C294.321 655.4 295.401 656.48 295.401 658.1V659.72H284.871V658.1ZM316.717 649.46V644.33C316.717 643.52 316.177 642.98 315.367 642.98H310.507C309.697 642.98 309.157 643.52 309.157 644.33V649.46H306.457C305.647 649.46 305.107 650 305.107 650.81V654.86C305.107 655.67 305.647 656.21 306.457 656.21H309.157V668.63C309.157 674.03 312.127 677 317.527 677H322.117C322.927 677 323.467 676.46 323.467 675.65V671.6C323.467 670.79 322.927 670.25 322.117 670.25H319.417C317.797 670.25 316.717 669.17 316.717 667.55V656.21H321.037C321.847 656.21 322.387 655.67 322.387 654.86V650.81C322.387 650 321.847 649.46 321.037 649.46H316.717ZM342.363 650.27C342.363 649.46 341.823 648.92 341.013 648.92H338.313C334.263 648.92 333.723 652.16 333.723 652.16H333.183V650.81C333.183 650 332.643 649.46 331.833 649.46H326.973C326.163 649.46 325.623 650 325.623 650.81V675.65C325.623 676.46 326.163 677 326.973 677H331.833C332.643 677 333.183 676.46 333.183 675.65V659.45C333.183 657.56 334.533 656.21 336.423 656.21H341.013C341.823 656.21 342.363 655.67 342.363 654.86V650.27ZM344.246 650C343.436 650 342.896 650.54 342.896 651.35V675.65C342.896 676.46 343.436 677 344.246 677H349.106C349.916 677 350.456 676.46 350.456 675.65V651.35C350.456 650.54 349.916 650 349.106 650H344.246ZM344.246 638.66C343.436 638.66 342.896 639.2 342.896 640.01V644.33C342.896 645.14 343.436 645.68 344.246 645.68H349.106C349.916 645.68 350.456 645.14 350.456 644.33V640.01C350.456 639.2 349.916 638.66 349.106 638.66H344.246ZM360.974 648.92C355.844 648.92 353.144 651.62 353.144 656.75V657.56C353.144 661.34 355.034 663.23 358.544 664.31L368.804 667.55C369.614 667.82 370.154 668.36 370.154 669.17V669.44C370.154 670.25 369.614 670.79 368.804 670.79H362.594C361.244 670.79 360.164 669.71 360.164 668.36C360.164 667.55 359.624 667.01 358.814 667.01H353.954C353.144 667.01 352.604 667.55 352.604 668.36V669.17C352.604 674.57 355.574 677.54 360.974 677.54H369.884C375.014 677.54 377.714 674.84 377.714 669.71V668.9C377.714 665.12 375.824 663.23 372.314 662.15L362.054 658.91C361.244 658.64 360.704 658.1 360.704 657.29V657.02C360.704 656.21 361.244 655.67 362.054 655.67H367.454C368.804 655.67 369.614 656.48 369.614 657.83C369.614 658.64 370.154 659.18 370.964 659.18H375.824C376.634 659.18 377.174 658.64 377.174 657.83V657.29C377.174 651.89 374.204 648.92 368.804 648.92H360.974ZM390.129 670.79C388.509 670.79 387.429 669.71 387.429 668.09V665.66H404.169C404.979 665.66 405.519 665.12 405.519 664.31V657.29C405.519 651.89 402.549 648.92 397.149 648.92H388.239C382.839 648.92 379.869 651.89 379.869 657.29V669.17C379.869 674.57 382.839 677.54 388.239 677.54H396.879C402.279 677.54 405.249 674.57 405.249 669.17C405.249 668.36 404.709 667.82 403.899 667.82H399.039C398.229 667.82 397.689 668.36 397.689 669.17C397.689 670.25 397.149 670.79 396.069 670.79H390.129ZM387.429 658.1C387.429 656.48 388.509 655.4 390.129 655.4H395.259C396.879 655.4 397.959 656.48 397.959 658.1V659.72H387.429V658.1Z" fill="#E72561"/>
</g>
<g opacity="0.5">
<path d="M85 605H121" stroke="#E72561"/>
<path d="M103 587L103 623" stroke="#E72561"/>
</g>
<g opacity="0.1">
<circle cx="890.5" cy="476.5" r="468.5" stroke="url(#paint0_linear_689_7346)" stroke-width="4" stroke-dasharray="16 16"/>
<circle cx="462.873" cy="281.721" r="8.13119" fill="#E72561"/>
<circle cx="1334.02" cy="322.747" r="12.1968" fill="#E72561"/>
<circle cx="805.492" cy="937.76" r="7.76159" fill="#E72561"/>
</g>
<g opacity="0.1">
<circle cx="855.757" cy="377.447" r="345.054" stroke="url(#paint1_linear_689_7346)" stroke-width="4"/>
<circle cx="523.485" cy="476.869" r="9.60958" fill="#E72561"/>
<circle cx="845.04" cy="724.501" r="13.3056" fill="#E72561"/>
<circle cx="1174.72" cy="510.873" r="7.39199" fill="#E72561"/>
</g>
<g opacity="0.1">
<circle cx="848.733" cy="275.069" r="226.412" stroke="url(#paint2_linear_689_7346)" stroke-width="4"/>
<circle cx="624.756" cy="312.029" r="14.0448" fill="#E72561"/>
<circle cx="1069.75" cy="228.499" r="7.39199" fill="#E72561"/>
</g>
</g>
<defs>
<filter id="filter0_f_689_7346" x="112.32" y="622.66" width="309.199" height="70.88" filterUnits="userSpaceOnUse" color-interpolation-filters="sRGB">
<feFlood flood-opacity="0" result="BackgroundImageFix"/>
<feBlend mode="normal" in="SourceGraphic" in2="BackgroundImageFix" result="shape"/>
<feGaussianBlur stdDeviation="8" result="effect1_foregroundBlur_689_7346"/>
</filter>
<linearGradient id="paint0_linear_689_7346" x1="890.5" y1="6" x2="890.5" y2="947" gradientUnits="userSpaceOnUse">
<stop stop-color="#E72561" stop-opacity="0"/>
<stop offset="0.109375" stop-color="#E72561" stop-opacity="0.5"/>
<stop offset="1" stop-color="#E72561"/>
</linearGradient>
<linearGradient id="paint1_linear_689_7346" x1="855.757" y1="30.3936" x2="855.757" y2="724.501" gradientUnits="userSpaceOnUse">
<stop stop-color="#E72561" stop-opacity="0"/>
<stop offset="0.109375" stop-color="#E72561" stop-opacity="0.5"/>
<stop offset="1" stop-color="#E72561"/>
</linearGradient>
<linearGradient id="paint2_linear_689_7346" x1="848.733" y1="46.6562" x2="848.733" y2="503.481" gradientUnits="userSpaceOnUse">
<stop stop-color="#E72561" stop-opacity="0"/>
<stop offset="0.109375" stop-color="#E72561" stop-opacity="0.5"/>
<stop offset="1" stop-color="#E72561"/>
</linearGradient>
<clipPath id="clip0_689_7346">
<rect width="1898" height="947" fill="white"/>
</clipPath>
</defs>
</svg>
