<svg width="521" height="520" viewBox="0 0 521 520" fill="none" xmlns="http://www.w3.org/2000/svg">
<g clip-path="url(#clip0_985_25261)">
<g clip-path="url(#clip1_985_25261)">
<path d="M434.5 187.719V332.28C434.5 345.259 427.055 357.243 414.995 363.687L279.273 436.221C267.329 442.593 252.671 442.593 240.727 436.221L105.005 363.687C92.9453 357.243 85.5 345.259 85.5 332.28V187.719C85.5 174.74 92.9453 162.757 105.005 156.313L240.727 83.7789C252.671 77.407 267.329 77.407 279.273 83.7789L414.995 156.313C427.055 162.757 434.5 174.74 434.5 187.719V187.719Z" stroke="#E72561" stroke-opacity="0.05" stroke-width="4" stroke-linecap="round" stroke-linejoin="round"/>
<path d="M410.5 197.304V322.696C410.5 333.954 404.079 344.349 393.677 349.939L276.622 412.855C266.321 418.382 253.679 418.382 243.378 412.855L126.323 349.939C115.921 344.349 109.5 333.954 109.5 322.696V197.304C109.5 186.046 115.921 175.651 126.323 170.061L243.378 107.145C253.679 101.618 266.321 101.618 276.622 107.145L393.677 170.061C404.079 175.651 410.5 186.046 410.5 197.304V197.304Z" stroke="#E72561" stroke-opacity="0.15" stroke-width="4" stroke-linecap="round" stroke-linejoin="round"/>
<g filter="url(#filter0_dd_985_25261)">
<rect x="331.5" y="363" width="95" height="78" rx="16" fill="#DFE7ED"/>
</g>
<g filter="url(#filter1_dd_985_25261)">
<rect x="60.5" y="137" width="86" height="105" rx="16" fill="#DFE7ED"/>
</g>
<g filter="url(#filter2_dd_985_25261)">
<rect x="109.5" y="93" width="62" height="67" rx="16" fill="#DFE7ED"/>
</g>
<g filter="url(#filter3_dd_985_25261)">
<path d="M387.062 206.888V313.112C387.062 322.649 381.674 331.455 372.947 336.19L274.728 389.488C266.085 394.171 255.477 394.171 246.834 389.488L148.615 336.19C139.888 331.455 134.5 322.649 134.5 313.112V206.888C134.5 197.351 139.888 188.545 148.615 183.81L246.834 130.512C255.477 125.829 266.085 125.829 274.728 130.512L372.947 183.81C381.674 188.545 387.062 197.351 387.062 206.888Z" fill="#DFE7ED"/>
</g>
<g filter="url(#filter4_dd_985_25261)">
<rect x="290.5" y="127" width="61" height="69" rx="16" fill="#DFE7ED"/>
</g>
<path opacity="0.5" d="M250.269 222.472C252.919 220.942 256.183 220.942 258.832 222.472L278.52 233.839C281.169 235.368 282.801 238.195 282.801 241.254V263.988C282.801 267.047 281.169 269.874 278.52 271.403L258.832 282.77C256.183 284.3 252.919 284.3 250.269 282.77L230.581 271.403C227.932 269.874 226.3 267.047 226.3 263.988V241.254C226.3 238.195 227.932 235.368 230.581 233.839L250.269 222.472Z" fill="#E297B3"/>
<path d="M290.283 250.57V275.253C290.283 277.469 289.096 279.515 287.173 280.616L265.538 293.001C263.634 294.089 261.297 294.089 259.393 293.001L237.758 280.616C235.835 279.515 234.648 277.469 234.648 275.253V250.57C234.648 248.354 235.835 246.308 237.758 245.208L259.393 232.823C261.297 231.735 263.634 231.735 265.538 232.823L287.173 245.208C289.096 246.308 290.283 248.354 290.283 250.57V250.57Z" stroke="#F9195C" stroke-width="3" stroke-linecap="round" stroke-linejoin="round"/>
<path d="M235.547 247.364L248.559 254.874" stroke="#F9195C" stroke-width="3" stroke-linecap="round" stroke-linejoin="round"/>
<path d="M289.387 247.364L276.375 254.874" stroke="#F9195C" stroke-width="3" stroke-linecap="round" stroke-linejoin="round"/>
<path d="M288.983 278.983H235.945" stroke="#F9195C" stroke-width="3" stroke-linecap="round" stroke-linejoin="round"/>
<path d="M261.723 232.094L235.266 277.869" stroke="#F9195C" stroke-width="3" stroke-linecap="round" stroke-linejoin="round"/>
<path d="M263.207 232.094L289.664 277.869" stroke="#F9195C" stroke-width="3" stroke-linecap="round" stroke-linejoin="round"/>
<path d="M262.467 278.971L248.559 254.881H276.376L262.467 278.971Z" stroke="#F9195C" stroke-width="3" stroke-linecap="round" stroke-linejoin="round"/>
<path d="M262.465 278.983V293.818" stroke="#F9195C" stroke-width="3" stroke-linecap="round" stroke-linejoin="round"/>
</g>
</g>
<defs>
<filter id="filter0_dd_985_25261" x="251.5" y="298" width="255" height="208" filterUnits="userSpaceOnUse" color-interpolation-filters="sRGB">
<feFlood flood-opacity="0" result="BackgroundImageFix"/>
<feColorMatrix in="SourceAlpha" type="matrix" values="0 0 0 0 0 0 0 0 0 0 0 0 0 0 0 0 0 0 127 0" result="hardAlpha"/>
<feOffset dx="-30" dy="-15"/>
<feGaussianBlur stdDeviation="25"/>
<feColorMatrix type="matrix" values="0 0 0 0 0.968627 0 0 0 0 0.976471 0 0 0 0 0.984314 0 0 0 0.6 0"/>
<feBlend mode="normal" in2="BackgroundImageFix" result="effect1_dropShadow_985_25261"/>
<feColorMatrix in="SourceAlpha" type="matrix" values="0 0 0 0 0 0 0 0 0 0 0 0 0 0 0 0 0 0 127 0" result="hardAlpha"/>
<feOffset dx="30" dy="15"/>
<feGaussianBlur stdDeviation="25"/>
<feColorMatrix type="matrix" values="0 0 0 0 0.752941 0 0 0 0 0.811765 0 0 0 0 0.85098 0 0 0 0.9 0"/>
<feBlend mode="normal" in2="effect1_dropShadow_985_25261" result="effect2_dropShadow_985_25261"/>
<feBlend mode="normal" in="SourceGraphic" in2="effect2_dropShadow_985_25261" result="shape"/>
</filter>
<filter id="filter1_dd_985_25261" x="-19.5" y="72" width="246" height="235" filterUnits="userSpaceOnUse" color-interpolation-filters="sRGB">
<feFlood flood-opacity="0" result="BackgroundImageFix"/>
<feColorMatrix in="SourceAlpha" type="matrix" values="0 0 0 0 0 0 0 0 0 0 0 0 0 0 0 0 0 0 127 0" result="hardAlpha"/>
<feOffset dx="-30" dy="-15"/>
<feGaussianBlur stdDeviation="25"/>
<feColorMatrix type="matrix" values="0 0 0 0 0.968627 0 0 0 0 0.976471 0 0 0 0 0.984314 0 0 0 0.6 0"/>
<feBlend mode="normal" in2="BackgroundImageFix" result="effect1_dropShadow_985_25261"/>
<feColorMatrix in="SourceAlpha" type="matrix" values="0 0 0 0 0 0 0 0 0 0 0 0 0 0 0 0 0 0 127 0" result="hardAlpha"/>
<feOffset dx="30" dy="15"/>
<feGaussianBlur stdDeviation="25"/>
<feColorMatrix type="matrix" values="0 0 0 0 0.752941 0 0 0 0 0.811765 0 0 0 0 0.85098 0 0 0 0.9 0"/>
<feBlend mode="normal" in2="effect1_dropShadow_985_25261" result="effect2_dropShadow_985_25261"/>
<feBlend mode="normal" in="SourceGraphic" in2="effect2_dropShadow_985_25261" result="shape"/>
</filter>
<filter id="filter2_dd_985_25261" x="29.5" y="28" width="222" height="197" filterUnits="userSpaceOnUse" color-interpolation-filters="sRGB">
<feFlood flood-opacity="0" result="BackgroundImageFix"/>
<feColorMatrix in="SourceAlpha" type="matrix" values="0 0 0 0 0 0 0 0 0 0 0 0 0 0 0 0 0 0 127 0" result="hardAlpha"/>
<feOffset dx="-30" dy="-15"/>
<feGaussianBlur stdDeviation="25"/>
<feColorMatrix type="matrix" values="0 0 0 0 0.968627 0 0 0 0 0.976471 0 0 0 0 0.984314 0 0 0 0.6 0"/>
<feBlend mode="normal" in2="BackgroundImageFix" result="effect1_dropShadow_985_25261"/>
<feColorMatrix in="SourceAlpha" type="matrix" values="0 0 0 0 0 0 0 0 0 0 0 0 0 0 0 0 0 0 127 0" result="hardAlpha"/>
<feOffset dx="30" dy="15"/>
<feGaussianBlur stdDeviation="25"/>
<feColorMatrix type="matrix" values="0 0 0 0 0.752941 0 0 0 0 0.811765 0 0 0 0 0.85098 0 0 0 0.9 0"/>
<feBlend mode="normal" in2="effect1_dropShadow_985_25261" result="effect2_dropShadow_985_25261"/>
<feBlend mode="normal" in="SourceGraphic" in2="effect2_dropShadow_985_25261" result="shape"/>
</filter>
<filter id="filter3_dd_985_25261" x="-5.5" y="7" width="532.562" height="506" filterUnits="userSpaceOnUse" color-interpolation-filters="sRGB">
<feFlood flood-opacity="0" result="BackgroundImageFix"/>
<feColorMatrix in="SourceAlpha" type="matrix" values="0 0 0 0 0 0 0 0 0 0 0 0 0 0 0 0 0 0 127 0" result="hardAlpha"/>
<feOffset dx="-50" dy="-30"/>
<feGaussianBlur stdDeviation="45"/>
<feColorMatrix type="matrix" values="0 0 0 0 0.968627 0 0 0 0 0.976471 0 0 0 0 0.984314 0 0 0 0.6 0"/>
<feBlend mode="normal" in2="BackgroundImageFix" result="effect1_dropShadow_985_25261"/>
<feColorMatrix in="SourceAlpha" type="matrix" values="0 0 0 0 0 0 0 0 0 0 0 0 0 0 0 0 0 0 127 0" result="hardAlpha"/>
<feOffset dx="50" dy="30"/>
<feGaussianBlur stdDeviation="45"/>
<feColorMatrix type="matrix" values="0 0 0 0 0.752941 0 0 0 0 0.811765 0 0 0 0 0.85098 0 0 0 0.9 0"/>
<feBlend mode="normal" in2="effect1_dropShadow_985_25261" result="effect2_dropShadow_985_25261"/>
<feBlend mode="normal" in="SourceGraphic" in2="effect2_dropShadow_985_25261" result="shape"/>
</filter>
<filter id="filter4_dd_985_25261" x="150.5" y="7" width="341" height="309" filterUnits="userSpaceOnUse" color-interpolation-filters="sRGB">
<feFlood flood-opacity="0" result="BackgroundImageFix"/>
<feColorMatrix in="SourceAlpha" type="matrix" values="0 0 0 0 0 0 0 0 0 0 0 0 0 0 0 0 0 0 127 0" result="hardAlpha"/>
<feOffset dx="-50" dy="-30"/>
<feGaussianBlur stdDeviation="45"/>
<feColorMatrix type="matrix" values="0 0 0 0 0.968627 0 0 0 0 0.976471 0 0 0 0 0.984314 0 0 0 0.6 0"/>
<feBlend mode="normal" in2="BackgroundImageFix" result="effect1_dropShadow_985_25261"/>
<feColorMatrix in="SourceAlpha" type="matrix" values="0 0 0 0 0 0 0 0 0 0 0 0 0 0 0 0 0 0 127 0" result="hardAlpha"/>
<feOffset dx="50" dy="30"/>
<feGaussianBlur stdDeviation="45"/>
<feColorMatrix type="matrix" values="0 0 0 0 0.752941 0 0 0 0 0.811765 0 0 0 0 0.85098 0 0 0 0.9 0"/>
<feBlend mode="normal" in2="effect1_dropShadow_985_25261" result="effect2_dropShadow_985_25261"/>
<feBlend mode="normal" in="SourceGraphic" in2="effect2_dropShadow_985_25261" result="shape"/>
</filter>
<clipPath id="clip0_985_25261">
<rect width="520" height="520" fill="white" transform="translate(0.5)"/>
</clipPath>
<clipPath id="clip1_985_25261">
<rect width="520" height="520" fill="white" transform="translate(0.5)"/>
</clipPath>
</defs>
</svg>
