<svg width="263" height="252" viewBox="0 0 263 252" fill="none" xmlns="http://www.w3.org/2000/svg">
<g opacity="0.05" filter="url(#filter0_dd_1157_12636)">
<path d="M128.5 44.6188C133.45 41.7607 139.55 41.7607 144.5 44.6188L202.978 78.3812C207.929 81.2393 210.978 86.5214 210.978 92.2376V159.762C210.978 165.479 207.929 170.761 202.978 173.619L144.5 207.381C139.55 210.239 133.45 210.239 128.5 207.381L70.0218 173.619C65.0714 170.761 62.0218 165.479 62.0218 159.762V92.2376C62.0218 86.5214 65.0714 81.2393 70.0218 78.3812L128.5 44.6188Z" stroke="#E72561" stroke-width="3"/>
</g>
<g opacity="0.15" filter="url(#filter1_dd_1157_12636)">
<path d="M128.5 57.6188C133.45 54.7607 139.55 54.7607 144.5 57.6188L191.72 84.8812C196.67 87.7393 199.72 93.0214 199.72 98.7376V153.262C199.72 158.979 196.67 164.261 191.72 167.119L144.5 194.381C139.55 197.239 133.45 197.239 128.5 194.381L81.2801 167.119C76.3297 164.261 73.2801 158.979 73.2801 153.262V98.7376C73.2801 93.0214 76.3297 87.7393 81.2801 84.8812L128.5 57.6188Z" stroke="#E72561" stroke-width="3"/>
</g>
<g filter="url(#filter2_dd_1157_12636)">
<rect x="71.5" y="58" width="51" height="70" rx="8" fill="#DFE7ED"/>
</g>
<g filter="url(#filter3_dd_1157_12636)">
<rect x="158.5" y="136" width="46" height="49" rx="8" fill="#DFE7ED"/>
</g>
<g filter="url(#filter4_dd_1157_12636)">
<rect x="50.5" y="112" width="30" height="36" rx="8" fill="#DFE7ED"/>
</g>
<g filter="url(#filter5_dd_1157_12636)">
<rect x="170.5" y="40" width="34" height="35" rx="8" fill="#DFE7ED"/>
</g>
<g filter="url(#filter6_dd_1157_12636)">
<path d="M128.5 71.6188C133.45 68.7607 139.55 68.7607 144.5 71.6188L179.595 91.8812C184.546 94.7393 187.595 100.021 187.595 105.738V146.262C187.595 151.979 184.546 157.261 179.595 160.119L144.5 180.381C139.55 183.239 133.45 183.239 128.5 180.381L93.4045 160.119C88.4541 157.261 85.4045 151.979 85.4045 146.262V105.738C85.4045 100.021 88.4541 94.7393 93.4045 91.8812L128.5 71.6188Z" fill="#DFE7ED"/>
</g>
<path d="M154.304 139.089L138.003 148.146C136.45 149.007 134.543 147.885 134.543 146.11V128.151C134.543 127.306 135.002 126.526 135.74 126.116L152.041 117.06C153.594 116.196 155.501 117.318 155.501 119.095V137.054C155.501 137.899 155.042 138.677 154.304 139.089Z" stroke="#E72561" stroke-width="2" stroke-linecap="round" stroke-linejoin="round"/>
<path d="M148.513 110.479L128.733 121.713C128.004 122.125 127.555 122.898 127.555 123.737V143.081" stroke="#E72561" stroke-width="2" stroke-linecap="round" stroke-linejoin="round"/>
<path d="M141.528 105.821L121.767 116.799C121.029 117.211 120.57 117.989 120.57 118.834V136.094" stroke="#E72561" stroke-width="2" stroke-linecap="round" stroke-linejoin="round"/>
<path opacity="0.25" d="M131.5 105.155C132.738 104.44 134.262 104.44 135.5 105.155L148.821 112.845C150.058 113.56 150.821 114.88 150.821 116.309V131.691C150.821 133.12 150.058 134.44 148.821 135.155L135.5 142.845C134.262 143.56 132.738 143.56 131.5 142.845L118.179 135.155C116.942 134.44 116.179 133.12 116.179 131.691V116.309C116.179 114.88 116.942 113.56 118.179 112.845L131.5 105.155Z" fill="#E72561"/>
<defs>
<filter id="filter0_dd_1157_12636" x="10.5234" y="0.975586" width="251.953" height="250.049" filterUnits="userSpaceOnUse" color-interpolation-filters="sRGB">
<feFlood flood-opacity="0" result="BackgroundImageFix"/>
<feColorMatrix in="SourceAlpha" type="matrix" values="0 0 0 0 0 0 0 0 0 0 0 0 0 0 0 0 0 0 127 0" result="hardAlpha"/>
<feOffset dx="-20" dy="-10"/>
<feGaussianBlur stdDeviation="15"/>
<feColorMatrix type="matrix" values="0 0 0 0 0.968627 0 0 0 0 0.976471 0 0 0 0 0.984314 0 0 0 0.6 0"/>
<feBlend mode="normal" in2="BackgroundImageFix" result="effect1_dropShadow_1157_12636"/>
<feColorMatrix in="SourceAlpha" type="matrix" values="0 0 0 0 0 0 0 0 0 0 0 0 0 0 0 0 0 0 127 0" result="hardAlpha"/>
<feOffset dx="20" dy="10"/>
<feGaussianBlur stdDeviation="15"/>
<feColorMatrix type="matrix" values="0 0 0 0 0.752941 0 0 0 0 0.811765 0 0 0 0 0.85098 0 0 0 0.9 0"/>
<feBlend mode="normal" in2="effect1_dropShadow_1157_12636" result="effect2_dropShadow_1157_12636"/>
<feBlend mode="normal" in="SourceGraphic" in2="effect2_dropShadow_1157_12636" result="shape"/>
</filter>
<filter id="filter1_dd_1157_12636" x="21.7812" y="13.9756" width="229.438" height="224.049" filterUnits="userSpaceOnUse" color-interpolation-filters="sRGB">
<feFlood flood-opacity="0" result="BackgroundImageFix"/>
<feColorMatrix in="SourceAlpha" type="matrix" values="0 0 0 0 0 0 0 0 0 0 0 0 0 0 0 0 0 0 127 0" result="hardAlpha"/>
<feOffset dx="-20" dy="-10"/>
<feGaussianBlur stdDeviation="15"/>
<feColorMatrix type="matrix" values="0 0 0 0 0.968627 0 0 0 0 0.976471 0 0 0 0 0.984314 0 0 0 0.6 0"/>
<feBlend mode="normal" in2="BackgroundImageFix" result="effect1_dropShadow_1157_12636"/>
<feColorMatrix in="SourceAlpha" type="matrix" values="0 0 0 0 0 0 0 0 0 0 0 0 0 0 0 0 0 0 127 0" result="hardAlpha"/>
<feOffset dx="20" dy="10"/>
<feGaussianBlur stdDeviation="15"/>
<feColorMatrix type="matrix" values="0 0 0 0 0.752941 0 0 0 0 0.811765 0 0 0 0 0.85098 0 0 0 0.9 0"/>
<feBlend mode="normal" in2="effect1_dropShadow_1157_12636" result="effect2_dropShadow_1157_12636"/>
<feBlend mode="normal" in="SourceGraphic" in2="effect2_dropShadow_1157_12636" result="shape"/>
</filter>
<filter id="filter2_dd_1157_12636" x="21.5" y="18" width="151" height="150" filterUnits="userSpaceOnUse" color-interpolation-filters="sRGB">
<feFlood flood-opacity="0" result="BackgroundImageFix"/>
<feColorMatrix in="SourceAlpha" type="matrix" values="0 0 0 0 0 0 0 0 0 0 0 0 0 0 0 0 0 0 127 0" result="hardAlpha"/>
<feOffset dx="-20" dy="-10"/>
<feGaussianBlur stdDeviation="15"/>
<feColorMatrix type="matrix" values="0 0 0 0 0.968627 0 0 0 0 0.976471 0 0 0 0 0.984314 0 0 0 0.6 0"/>
<feBlend mode="normal" in2="BackgroundImageFix" result="effect1_dropShadow_1157_12636"/>
<feColorMatrix in="SourceAlpha" type="matrix" values="0 0 0 0 0 0 0 0 0 0 0 0 0 0 0 0 0 0 127 0" result="hardAlpha"/>
<feOffset dx="20" dy="10"/>
<feGaussianBlur stdDeviation="15"/>
<feColorMatrix type="matrix" values="0 0 0 0 0.752941 0 0 0 0 0.811765 0 0 0 0 0.85098 0 0 0 0.9 0"/>
<feBlend mode="normal" in2="effect1_dropShadow_1157_12636" result="effect2_dropShadow_1157_12636"/>
<feBlend mode="normal" in="SourceGraphic" in2="effect2_dropShadow_1157_12636" result="shape"/>
</filter>
<filter id="filter3_dd_1157_12636" x="108.5" y="96" width="146" height="129" filterUnits="userSpaceOnUse" color-interpolation-filters="sRGB">
<feFlood flood-opacity="0" result="BackgroundImageFix"/>
<feColorMatrix in="SourceAlpha" type="matrix" values="0 0 0 0 0 0 0 0 0 0 0 0 0 0 0 0 0 0 127 0" result="hardAlpha"/>
<feOffset dx="-20" dy="-10"/>
<feGaussianBlur stdDeviation="15"/>
<feColorMatrix type="matrix" values="0 0 0 0 0.968627 0 0 0 0 0.976471 0 0 0 0 0.984314 0 0 0 0.6 0"/>
<feBlend mode="normal" in2="BackgroundImageFix" result="effect1_dropShadow_1157_12636"/>
<feColorMatrix in="SourceAlpha" type="matrix" values="0 0 0 0 0 0 0 0 0 0 0 0 0 0 0 0 0 0 127 0" result="hardAlpha"/>
<feOffset dx="20" dy="10"/>
<feGaussianBlur stdDeviation="15"/>
<feColorMatrix type="matrix" values="0 0 0 0 0.752941 0 0 0 0 0.811765 0 0 0 0 0.85098 0 0 0 0.9 0"/>
<feBlend mode="normal" in2="effect1_dropShadow_1157_12636" result="effect2_dropShadow_1157_12636"/>
<feBlend mode="normal" in="SourceGraphic" in2="effect2_dropShadow_1157_12636" result="shape"/>
</filter>
<filter id="filter4_dd_1157_12636" x="0.5" y="72" width="130" height="116" filterUnits="userSpaceOnUse" color-interpolation-filters="sRGB">
<feFlood flood-opacity="0" result="BackgroundImageFix"/>
<feColorMatrix in="SourceAlpha" type="matrix" values="0 0 0 0 0 0 0 0 0 0 0 0 0 0 0 0 0 0 127 0" result="hardAlpha"/>
<feOffset dx="-20" dy="-10"/>
<feGaussianBlur stdDeviation="15"/>
<feColorMatrix type="matrix" values="0 0 0 0 0.968627 0 0 0 0 0.976471 0 0 0 0 0.984314 0 0 0 0.6 0"/>
<feBlend mode="normal" in2="BackgroundImageFix" result="effect1_dropShadow_1157_12636"/>
<feColorMatrix in="SourceAlpha" type="matrix" values="0 0 0 0 0 0 0 0 0 0 0 0 0 0 0 0 0 0 127 0" result="hardAlpha"/>
<feOffset dx="20" dy="10"/>
<feGaussianBlur stdDeviation="15"/>
<feColorMatrix type="matrix" values="0 0 0 0 0.752941 0 0 0 0 0.811765 0 0 0 0 0.85098 0 0 0 0.9 0"/>
<feBlend mode="normal" in2="effect1_dropShadow_1157_12636" result="effect2_dropShadow_1157_12636"/>
<feBlend mode="normal" in="SourceGraphic" in2="effect2_dropShadow_1157_12636" result="shape"/>
</filter>
<filter id="filter5_dd_1157_12636" x="120.5" y="0" width="134" height="115" filterUnits="userSpaceOnUse" color-interpolation-filters="sRGB">
<feFlood flood-opacity="0" result="BackgroundImageFix"/>
<feColorMatrix in="SourceAlpha" type="matrix" values="0 0 0 0 0 0 0 0 0 0 0 0 0 0 0 0 0 0 127 0" result="hardAlpha"/>
<feOffset dx="-20" dy="-10"/>
<feGaussianBlur stdDeviation="15"/>
<feColorMatrix type="matrix" values="0 0 0 0 0.968627 0 0 0 0 0.976471 0 0 0 0 0.984314 0 0 0 0.6 0"/>
<feBlend mode="normal" in2="BackgroundImageFix" result="effect1_dropShadow_1157_12636"/>
<feColorMatrix in="SourceAlpha" type="matrix" values="0 0 0 0 0 0 0 0 0 0 0 0 0 0 0 0 0 0 127 0" result="hardAlpha"/>
<feOffset dx="20" dy="10"/>
<feGaussianBlur stdDeviation="15"/>
<feColorMatrix type="matrix" values="0 0 0 0 0.752941 0 0 0 0 0.811765 0 0 0 0 0.85098 0 0 0 0.9 0"/>
<feBlend mode="normal" in2="effect1_dropShadow_1157_12636" result="effect2_dropShadow_1157_12636"/>
<feBlend mode="normal" in="SourceGraphic" in2="effect2_dropShadow_1157_12636" result="shape"/>
</filter>
<filter id="filter6_dd_1157_12636" x="35.4062" y="29.4756" width="202.188" height="193.049" filterUnits="userSpaceOnUse" color-interpolation-filters="sRGB">
<feFlood flood-opacity="0" result="BackgroundImageFix"/>
<feColorMatrix in="SourceAlpha" type="matrix" values="0 0 0 0 0 0 0 0 0 0 0 0 0 0 0 0 0 0 127 0" result="hardAlpha"/>
<feOffset dx="-20" dy="-10"/>
<feGaussianBlur stdDeviation="15"/>
<feColorMatrix type="matrix" values="0 0 0 0 0.968627 0 0 0 0 0.976471 0 0 0 0 0.984314 0 0 0 0.6 0"/>
<feBlend mode="normal" in2="BackgroundImageFix" result="effect1_dropShadow_1157_12636"/>
<feColorMatrix in="SourceAlpha" type="matrix" values="0 0 0 0 0 0 0 0 0 0 0 0 0 0 0 0 0 0 127 0" result="hardAlpha"/>
<feOffset dx="20" dy="10"/>
<feGaussianBlur stdDeviation="15"/>
<feColorMatrix type="matrix" values="0 0 0 0 0.752941 0 0 0 0 0.811765 0 0 0 0 0.85098 0 0 0 0.9 0"/>
<feBlend mode="normal" in2="effect1_dropShadow_1157_12636" result="effect2_dropShadow_1157_12636"/>
<feBlend mode="normal" in="SourceGraphic" in2="effect2_dropShadow_1157_12636" result="shape"/>
</filter>
</defs>
</svg>
